<?xml version="1.0" encoding="UTF-8"?>
<!DOCTYPE svg PUBLIC "-//W3C//DTD SVG 1.1//EN" "http://www.w3.org/Graphics/SVG/1.1/DTD/svg11.dtd">
<!-- Creator: CorelDRAW X7 -->
<svg xmlns="http://www.w3.org/2000/svg" xml:space="preserve" width="297mm" height="420mm" version="1.1" style="shape-rendering:geometricPrecision; text-rendering:geometricPrecision; image-rendering:optimizeQuality; fill-rule:evenodd; clip-rule:evenodd"
viewBox="0 0 29700 42000"
 xmlns:xlink="http://www.w3.org/1999/xlink">
 <defs>
  <style type="text/css">
   <![CDATA[
    .str0 {stroke:black;stroke-width:25;stroke-linejoin:bevel}
    .fil0 {fill:none}
   ]]>
  </style>
 </defs>
 <g id="_0">
  <metadata id="CorelCorpID_0Corel-Layer"/>
  <line class="fil0 str0" x1="14406" y1="41600" x2="14406" y2= "37600" />
  <line class="fil0 str0" x1="14406" y1="37600" x2="14306" y2= "37600" />
  <line class="fil0 str0" x1="14306" y1="37600" x2="14306" y2= "41600" />
  <line class="fil0 str0" x1="13906" y1="41600" x2="13906" y2= "37600" />
  <line class="fil0 str0" x1="13906" y1="37600" x2="13806" y2= "37600" />
  <line class="fil0 str0" x1="13806" y1="37600" x2="13806" y2= "41600" />
  <line class="fil0 str0" x1="13406" y1="41600" x2="13406" y2= "37600" />
  <line class="fil0 str0" x1="13406" y1="37600" x2="13306" y2= "37600" />
  <line class="fil0 str0" x1="13306" y1="37600" x2="13306" y2= "41600" />
  <line class="fil0 str0" x1="12906" y1="41600" x2="12906" y2= "37600" />
  <line class="fil0 str0" x1="12906" y1="37600" x2="12806" y2= "37600" />
  <line class="fil0 str0" x1="12806" y1="37600" x2="12806" y2= "41600" />
  <line class="fil0 str0" x1="12406" y1="41600" x2="12406" y2= "37600" />
  <line class="fil0 str0" x1="12406" y1="37600" x2="12306" y2= "37600" />
  <line class="fil0 str0" x1="12306" y1="37600" x2="12306" y2= "41600" />
  <line class="fil0 str0" x1="12306" y1="26100" x2="12306" y2= "30100" />
  <line class="fil0 str0" x1="12306" y1="30100" x2="12406" y2= "30100" />
  <line class="fil0 str0" x1="12406" y1="30100" x2="12406" y2= "26100" />
  <line class="fil0 str0" x1="12806" y1="26100" x2="12806" y2= "30100" />
  <line class="fil0 str0" x1="12806" y1="30100" x2="12906" y2= "30100" />
  <line class="fil0 str0" x1="12906" y1="30100" x2="12906" y2= "26100" />
  <line class="fil0 str0" x1="13306" y1="26100" x2="13306" y2= "30100" />
  <line class="fil0 str0" x1="13306" y1="30100" x2="13406" y2= "30100" />
  <line class="fil0 str0" x1="13406" y1="30100" x2="13406" y2= "26100" />
  <line class="fil0 str0" x1="13806" y1="26100" x2="13806" y2= "30100" />
  <line class="fil0 str0" x1="13806" y1="30100" x2="13906" y2= "30100" />
  <line class="fil0 str0" x1="13906" y1="30100" x2="13906" y2= "26100" />
  <line class="fil0 str0" x1="14306" y1="26100" x2="14306" y2= "30100" />
  <line class="fil0 str0" x1="14306" y1="30100" x2="14406" y2= "30100" />
  <line class="fil0 str0" x1="14406" y1="30100" x2="14406" y2= "26100" />
  <line class="fil0 str0" x1="14806" y1="26100" x2="14806" y2= "30100" />
  <line class="fil0 str0" x1="14806" y1="30100" x2="14906" y2= "30100" />
  <line class="fil0 str0" x1="14906" y1="30100" x2="14906" y2= "26100" />
  <line class="fil0 str0" x1="15306" y1="26100" x2="15306" y2= "30100" />
  <line class="fil0 str0" x1="15306" y1="30100" x2="15406" y2= "30100" />
  <line class="fil0 str0" x1="15406" y1="30100" x2="15406" y2= "26100" />
  <line class="fil0 str0" x1="15406" y1="41600" x2="15406" y2= "37600" />
  <line class="fil0 str0" x1="15406" y1="37600" x2="15306" y2= "37600" />
  <line class="fil0 str0" x1="15306" y1="37600" x2="15306" y2= "41600" />
  <line class="fil0 str0" x1="14906" y1="41600" x2="14906" y2= "37600" />
  <line class="fil0 str0" x1="14906" y1="37600" x2="14806" y2= "37600" />
  <line class="fil0 str0" x1="14806" y1="37600" x2="14806" y2= "41600" />
  <line class="fil0 str0" x1="13806" y1="31350" x2="13806" y2= "36350" />
  <line class="fil0 str0" x1="13806" y1="36350" x2="13906" y2= "36350" />
  <line class="fil0 str0" x1="13906" y1="36350" x2="13906" y2= "31350" />
  <line class="fil0 str0" x1="13906" y1="31350" x2="13806" y2= "31350" />
  <line class="fil0 str0" x1="15556" y1="34350" x2="15556" y2= "40350" />
  <line class="fil0 str0" x1="15556" y1="40350" x2="15656" y2= "40350" />
  <line class="fil0 str0" x1="15656" y1="40350" x2="15656" y2= "34350" />
  <line class="fil0 str0" x1="15656" y1="34350" x2="15556" y2= "34350" />
  <line class="fil0 str0" x1="15656" y1="27350" x2="15556" y2= "27350" />
  <line class="fil0 str0" x1="15556" y1="27350" x2="15556" y2= "33350" />
  <line class="fil0 str0" x1="15556" y1="33350" x2="15656" y2= "33350" />
  <line class="fil0 str0" x1="15656" y1="33350" x2="15656" y2= "27350" />
  <line class="fil0 str0" x1="15056" y1="34350" x2="15056" y2= "40350" />
  <line class="fil0 str0" x1="15056" y1="40350" x2="15156" y2= "40350" />
  <line class="fil0 str0" x1="15156" y1="40350" x2="15156" y2= "34350" />
  <line class="fil0 str0" x1="15156" y1="34350" x2="15056" y2= "34350" />
  <line class="fil0 str0" x1="15156" y1="27350" x2="15056" y2= "27350" />
  <line class="fil0 str0" x1="15056" y1="27350" x2="15056" y2= "33350" />
  <line class="fil0 str0" x1="15056" y1="33350" x2="15156" y2= "33350" />
  <line class="fil0 str0" x1="15156" y1="33350" x2="15156" y2= "27350" />
  <line class="fil0 str0" x1="12406" y1="31350" x2="12306" y2= "31350" />
  <line class="fil0 str0" x1="12306" y1="31350" x2="12306" y2= "36350" />
  <line class="fil0 str0" x1="12306" y1="36350" x2="12406" y2= "36350" />
  <line class="fil0 str0" x1="12406" y1="36350" x2="12406" y2= "31350" />
  <line class="fil0 str0" x1="12556" y1="34350" x2="12556" y2= "40350" />
  <line class="fil0 str0" x1="12556" y1="40350" x2="12656" y2= "40350" />
  <line class="fil0 str0" x1="12656" y1="40350" x2="12656" y2= "34350" />
  <line class="fil0 str0" x1="12656" y1="34350" x2="12556" y2= "34350" />
  <line class="fil0 str0" x1="12656" y1="27350" x2="12556" y2= "27350" />
  <line class="fil0 str0" x1="12556" y1="27350" x2="12556" y2= "33350" />
  <line class="fil0 str0" x1="12556" y1="33350" x2="12656" y2= "33350" />
  <line class="fil0 str0" x1="12656" y1="33350" x2="12656" y2= "27350" />
  <line class="fil0 str0" x1="13056" y1="34350" x2="13056" y2= "40350" />
  <line class="fil0 str0" x1="13056" y1="40350" x2="13156" y2= "40350" />
  <line class="fil0 str0" x1="13156" y1="40350" x2="13156" y2= "34350" />
  <line class="fil0 str0" x1="13156" y1="34350" x2="13056" y2= "34350" />
  <line class="fil0 str0" x1="12906" y1="31350" x2="12806" y2= "31350" />
  <line class="fil0 str0" x1="12806" y1="31350" x2="12806" y2= "36350" />
  <line class="fil0 str0" x1="12806" y1="36350" x2="12906" y2= "36350" />
  <line class="fil0 str0" x1="12906" y1="36350" x2="12906" y2= "31350" />
  <line class="fil0 str0" x1="13406" y1="31350" x2="13306" y2= "31350" />
  <line class="fil0 str0" x1="13306" y1="31350" x2="13306" y2= "36350" />
  <line class="fil0 str0" x1="13306" y1="36350" x2="13406" y2= "36350" />
  <line class="fil0 str0" x1="13406" y1="36350" x2="13406" y2= "31350" />
  <line class="fil0 str0" x1="13156" y1="27350" x2="13056" y2= "27350" />
  <line class="fil0 str0" x1="13056" y1="27350" x2="13056" y2= "33350" />
  <line class="fil0 str0" x1="13056" y1="33350" x2="13156" y2= "33350" />
  <line class="fil0 str0" x1="13156" y1="33350" x2="13156" y2= "27350" />
  <line class="fil0 str0" x1="13556" y1="34350" x2="13556" y2= "40350" />
  <line class="fil0 str0" x1="13556" y1="40350" x2="13656" y2= "40350" />
  <line class="fil0 str0" x1="13656" y1="40350" x2="13656" y2= "34350" />
  <line class="fil0 str0" x1="13656" y1="34350" x2="13556" y2= "34350" />
  <line class="fil0 str0" x1="13656" y1="33350" x2="13656" y2= "27350" />
  <line class="fil0 str0" x1="13656" y1="27350" x2="13556" y2= "27350" />
  <line class="fil0 str0" x1="13556" y1="27350" x2="13556" y2= "33350" />
  <line class="fil0 str0" x1="13556" y1="33350" x2="13656" y2= "33350" />
  <line class="fil0 str0" x1="14056" y1="34350" x2="14056" y2= "40350" />
  <line class="fil0 str0" x1="14056" y1="40350" x2="14156" y2= "40350" />
  <line class="fil0 str0" x1="14156" y1="40350" x2="14156" y2= "34350" />
  <line class="fil0 str0" x1="14156" y1="34350" x2="14056" y2= "34350" />
  <line class="fil0 str0" x1="14156" y1="27350" x2="14056" y2= "27350" />
  <line class="fil0 str0" x1="14056" y1="27350" x2="14056" y2= "33350" />
  <line class="fil0 str0" x1="14056" y1="33350" x2="14156" y2= "33350" />
  <line class="fil0 str0" x1="14156" y1="33350" x2="14156" y2= "27350" />
  <line class="fil0 str0" x1="12156" y1="27350" x2="12056" y2= "27350" />
  <line class="fil0 str0" x1="12056" y1="27350" x2="12056" y2= "33350" />
  <line class="fil0 str0" x1="12056" y1="33350" x2="12156" y2= "33350" />
  <line class="fil0 str0" x1="12156" y1="33350" x2="12156" y2= "27350" />
  <line class="fil0 str0" x1="12056" y1="34350" x2="12056" y2= "40350" />
  <line class="fil0 str0" x1="12056" y1="40350" x2="12156" y2= "40350" />
  <line class="fil0 str0" x1="12156" y1="40350" x2="12156" y2= "34350" />
  <line class="fil0 str0" x1="12156" y1="34350" x2="12056" y2= "34350" />
  <line class="fil0 str0" x1="14406" y1="31350" x2="14306" y2= "31350" />
  <line class="fil0 str0" x1="14306" y1="31350" x2="14306" y2= "36350" />
  <line class="fil0 str0" x1="14306" y1="36350" x2="14406" y2= "36350" />
  <line class="fil0 str0" x1="14406" y1="36350" x2="14406" y2= "31350" />
  <line class="fil0 str0" x1="14556" y1="34350" x2="14556" y2= "40350" />
  <line class="fil0 str0" x1="14556" y1="40350" x2="14656" y2= "40350" />
  <line class="fil0 str0" x1="14656" y1="40350" x2="14656" y2= "34350" />
  <line class="fil0 str0" x1="14656" y1="34350" x2="14556" y2= "34350" />
  <line class="fil0 str0" x1="15406" y1="31350" x2="15306" y2= "31350" />
  <line class="fil0 str0" x1="15306" y1="31350" x2="15306" y2= "36350" />
  <line class="fil0 str0" x1="15306" y1="36350" x2="15406" y2= "36350" />
  <line class="fil0 str0" x1="15406" y1="36350" x2="15406" y2= "31350" />
  <line class="fil0 str0" x1="14906" y1="31350" x2="14806" y2= "31350" />
  <line class="fil0 str0" x1="14806" y1="31350" x2="14806" y2= "36350" />
  <line class="fil0 str0" x1="14806" y1="36350" x2="14906" y2= "36350" />
  <line class="fil0 str0" x1="14906" y1="36350" x2="14906" y2= "31350" />
  <line class="fil0 str0" x1="14656" y1="27350" x2="14556" y2= "27350" />
  <line class="fil0 str0" x1="14556" y1="27350" x2="14556" y2= "33350" />
  <line class="fil0 str0" x1="14556" y1="33350" x2="14656" y2= "33350" />
  <line class="fil0 str0" x1="14656" y1="33350" x2="14656" y2= "27350" />
  <line class="fil0 str0" x1="15406" y1="41600" x2="27356" y2= "41600" />
  <line class="fil0 str0" x1="356" y1="26100" x2="356" y2= "41600" />
  <line class="fil0 str0" x1="13806" y1="26100" x2="13406" y2= "26100" />
  <line class="fil0 str0" x1="27356" y1="41600" x2="27356" y2= "26100" />
  <line class="fil0 str0" x1="12406" y1="41600" x2="12806" y2= "41600" />
  <line class="fil0 str0" x1="12906" y1="41600" x2="13306" y2= "41600" />
  <line class="fil0 str0" x1="13406" y1="41600" x2="13806" y2= "41600" />
  <line class="fil0 str0" x1="13906" y1="41600" x2="14306" y2= "41600" />
  <line class="fil0 str0" x1="356" y1="41600" x2="12306" y2= "41600" />
  <line class="fil0 str0" x1="14906" y1="41600" x2="15306" y2= "41600" />
  <line class="fil0 str0" x1="14406" y1="41600" x2="14806" y2= "41600" />
  <line class="fil0 str0" x1="12306" y1="26100" x2="356" y2= "26100" />
  <line class="fil0 str0" x1="12806" y1="26100" x2="12406" y2= "26100" />
  <line class="fil0 str0" x1="13306" y1="26100" x2="12906" y2= "26100" />
  <line class="fil0 str0" x1="27356" y1="26100" x2="15406" y2= "26100" />
  <line class="fil0 str0" x1="14306" y1="26100" x2="13906" y2= "26100" />
  <line class="fil0 str0" x1="15306" y1="26100" x2="14906" y2= "26100" />
  <line class="fil0 str0" x1="14806" y1="26100" x2="14406" y2= "26100" />
 </g>
</svg>
