<?xml version="1.0" encoding="UTF-8" standalone="no"?>
<!-- Generator: Adobe Illustrator 23.0.0, SVG Export Plug-In . SVG Version: 6.00 Build 0)  -->

<svg
   xmlns:dc="http://purl.org/dc/elements/1.1/"
   xmlns:cc="http://creativecommons.org/ns#"
   xmlns:rdf="http://www.w3.org/1999/02/22-rdf-syntax-ns#"
   xmlns:svg="http://www.w3.org/2000/svg"
   xmlns="http://www.w3.org/2000/svg"
   xmlns:sodipodi="http://sodipodi.sourceforge.net/DTD/sodipodi-0.dtd"
   xmlns:inkscape="http://www.inkscape.org/namespaces/inkscape"
   version="1.1"
   x="0px"
   y="0px"
   viewBox="0 0 257.48743 302.36221"
   xml:space="preserve"
   id="svg340"
   sodipodi:docname="95 ОДШБр к.svg"
   width="257.48743"
   height="302.36221"
   inkscape:version="0.92.4 (5da689c313, 2019-01-14)"><metadata
   id="metadata346"><rdf:RDF><cc:Work
       rdf:about=""><dc:format>image/svg+xml</dc:format><dc:type
         rdf:resource="http://purl.org/dc/dcmitype/StillImage" /><dc:title></dc:title></cc:Work></rdf:RDF></metadata><defs
   id="defs344">
	

		
		
		
		
		
		
		
		
		
		
		
		
		
		
		
		
		
		
		
		
		
		
		
		
		
		
		
		
		
		
		
		
		
		
		
		
		
		
	
			
			
		
			
			
		
			
			
		
			
			
		
			
			
		
			
			
			
			
			
			
		</defs><sodipodi:namedview
   pagecolor="#ffffff"
   bordercolor="#666666"
   borderopacity="1"
   objecttolerance="10"
   gridtolerance="10"
   guidetolerance="10"
   inkscape:pageopacity="0"
   inkscape:pageshadow="2"
   inkscape:window-width="1280"
   inkscape:window-height="962"
   id="namedview342"
   showgrid="false"
   fit-margin-top="0"
   fit-margin-left="0"
   fit-margin-right="0"
   fit-margin-bottom="0"
   inkscape:zoom="2.5234635"
   inkscape:cx="128.74371"
   inkscape:cy="151.18111"
   inkscape:window-x="-8"
   inkscape:window-y="-8"
   inkscape:window-maximized="1"
   inkscape:current-layer="svg340" />
<style
   type="text/css"
   id="style2">
	.st0{fill:#580019;}
	.st1{fill:#C1852A;}
	.st2{fill:#D8A743;}
	.st3{fill:#A09E9F;}
	.st4{fill:#C3C6C4;}
	.st5{fill:#2B2B2D;}
	.st6{fill:#23000A;}
	.st7{fill:#35000F;}
</style>

<path
   style="fill:#2b2b2d;stroke-width:0.60107809"
   inkscape:connector-curvature="0"
   id="path229"
   d="M 5.9349932e-5,1.7757651 C 5.9349932e-5,0.83075009 0.83080636,7.9167989e-8 1.7757642,7.9167989e-8 H 255.71164 c 0.94504,0 1.77572,0.830750010832011 1.77572,1.775765020832011 l 6e-5,116.2309649 c 0,85.61112 -50.36188,153.80371 -128.09497,184.31103 -0.15093,0.0593 -1.14649,0.0593 -1.29749,0 C 50.357658,271.80879 -1.5679777e-7,203.61153 -1.5679777e-7,118.00672 Z"
   class="st5" /><path
   style="fill:#a09e9f;stroke-width:0.60107809"
   inkscape:connector-curvature="0"
   id="path231"
   d="M 1.7757648,118.00672 V 1.7757651 H 255.71164 V 118.00673 c 0,84.83321 -49.86921,152.39974 -126.96792,182.65799 C 51.640894,270.40481 1.7757648,202.83368 1.7757648,118.00672 Z m 7.5505018,0 c 0,86.93908 53.5647654,148.14374 119.4174534,174.54106 65.8526,-26.39732 119.41743,-87.60191 119.41743,-174.54106 l -7e-5,-108.6803924 H 9.3262666 Z"
   class="st3" /><path
   style="fill:#23000a;stroke-width:0.60107809"
   inkscape:connector-curvature="0"
   id="path233"
   d="m 9.3262666,118.00672 c 0,86.93908 53.5647654,148.14374 119.4174534,174.54106 65.8526,-26.39732 119.41743,-87.60191 119.41743,-174.54106 l -7e-5,-108.6803924 H 9.3262666 Z"
   class="st6" /><path
   style="fill:#c3c6c4;stroke-width:0.60107809"
   inkscape:connector-curvature="0"
   id="path235"
   d="M 2.6636743,118.00672 V 2.6636776 H 254.82373 c -0.72472,1.1636872 -2.12252,2.2197212 -4.18303,2.2197212 H 4.8833968 V 118.00672 c 0,33.25807 7.7804152,63.81832 21.9485462,90.43707 2.276824,4.61981 1.101356,5.88269 -1.826622,1.31335 C 10.564126,182.74715 2.6636743,151.73988 2.6636743,118.00672 Z"
   class="st4" /><path
   style="fill:#c3c6c4;stroke-width:0.60107809"
   inkscape:connector-curvature="0"
   id="path237"
   d="m 251.26872,10.351346 7e-5,107.655384 c 0,81.7802 -47.51962,147.82254 -122.52507,177.88899 0,-1.60146 -0.20967,-2.28795 2.38002,-3.3679 71.964,-30.00899 117.92533,-94.63038 117.92533,-174.52109 l -8e-5,-104.214633 c 0,-4.3591983 2.21973,-5.7365086 2.21973,-3.440751 z"
   class="st4" /><path
   style="fill:#580019;stroke-width:0.60107809"
   inkscape:connector-curvature="0"
   id="path239"
   d="M 128.74366,290.63327 C 193.72372,264.32085 246.38538,203.82329 246.38538,118.00672 V 11.102093 H 11.10197 l 5.4e-5,106.904627 c 0,85.81657 52.661593,146.31413 117.641636,172.62655 z"
   class="st0" /><path
   class="st7"
   d="m 241.54388,51.64 c -0.38349,-0.07669 -2.34955,1.037155 -2.65419,1.199452 -11.14164,5.956197 -50.52752,17.978666 -82.20445,27.647848 -10.52536,3.212817 -20.522,6.043293 -28.676,8.840296 -1.30541,0.447797 -1.53411,-0.556544 -0.40175,-1.64791 0.78032,-0.752141 2.65297,-1.572486 3.45619,-1.878369 4.3411,-1.653151 37.15973,-13.713295 46.29275,-17.1802 10.54255,-4.001984 20.12477,-7.802053 26.09315,-10.599717 9.71002,-4.551844 16.00017,-11.685487 18.18966,-20.629775 1.70711,-6.978697 1.97946,-14.622553 1.94588,-19.336796 -0.0107,-1.500598 -0.71241,-7.174895 -1.67155,-6.542441 -0.70885,0.467459 -1.87391,1.16519 -1.87391,1.16519 -14.58902,8.681305 -49.00548,23.368353 -79.39099,36.335597 -10.49719,4.479889 -33.2805,14.328127 -35.43122,15.22428 -1.20215,0.500878 -0.60107,-1.101957 6.11098,-4.508086 10.28456,-5.21904 14.19025,-8.942304 16.42024,-18.996592 1.9026,-8.576783 1.67335,-15.852406 1.33331,-19.619783 -0.0877,-0.971949 -0.74694,-6.334768 -1.97537,-5.262138 -0.46883,0.409328 -1.91432,1.591582 -1.91432,1.591582 -12.88645,9.644004 -61.4693,34.862836 -84.899924,47.025596 -7.412501,3.847736 -11.878331,8.707698 -13.273313,14.444923 -1.617736,6.654715 1.522056,11.795309 2.522911,13.212297 0.926856,1.311907 1.968464,1.588415 2.887699,1.83196 1.542601,0.409755 4.752845,1.261789 14.01996,9.989436 7.22556,6.80469 18.292675,17.15182 24.238594,22.71095 l 3.824239,3.57624 c 4.472568,4.18669 4.713113,5.13134 4.844755,6.15487 0.364374,2.83342 -1.233773,4.5144 -2.844788,5.0264 -10.245069,3.25579 -20.20902,6.56724 -25.778676,8.49142 -3.720914,1.28528 -6.000142,2.52039 -7.127704,3.89126 -0.293981,0.35739 -0.7136,0.60684 -1.877582,0.97724 -1.652964,0.52594 -4.1374,1.28172 -6.294976,2.04648 -5.063476,1.79463 -8.263862,3.94758 -9.601616,7.3263 -0.781281,1.97257 -1.23792,5.14288 1.021953,9.04376 1.620681,2.79783 4.824139,5.69726 7.298651,7.28514 0.888995,0.57041 1.940881,0.57041 1.940881,-0.28114 0,-1.05188 0.400739,-2.90519 3.823338,-2.72311 0.66677,0.0355 41.307708,2.44752 41.307708,2.44752 0.855869,0 1.015401,-0.60234 1.386387,-1.96445 0.175575,-0.64483 0.789155,-1.07473 1.454849,-1.01641 l 12.636405,1.00241 c 3.756739,0.35068 6.192849,0.41427 8.014419,2.40431 1.69095,1.84748 3.17387,3.39971 4.93009,5.30519 0.28077,0.30461 0.53389,0.64272 0.71415,1.01575 0.14774,0.30576 0.28135,0.68331 0.31641,1.09241 0.0672,0.78445 -0.37159,1.72611 -0.90059,2.25007 -2.64252,2.61793 -16.641042,14.76415 -19.389893,17.0354 -0.88653,0.7419 -1.802927,1.50917 -1.66174,2.82651 0.01731,0.15868 0.05127,0.31236 0.107659,0.48254 0.0431,0.12994 -0.01677,0.27812 -0.131642,0.35289 -0.268255,0.17329 -3.33748,2.9278 -4.492758,3.96519 -0.763009,0.68456 -1.412474,1.02375 -1.986377,1.03655 -1.021712,0.0228 -1.533356,-0.95222 -1.946717,-1.90065 -0.8358,-1.90891 -2.308795,-3.34218 -4.14762,-4.03631 -0.331308,-0.12533 -1.210925,-0.45797 -1.31029,-1.677 -0.04274,-0.51987 -0.192038,-1.05436 -0.456813,-1.63265 -0.651514,-1.41693 -1.571999,-2.54311 -2.735146,-3.34741 -0.512839,-0.35493 -0.824438,-0.87168 -0.85534,-1.41764 -0.01256,-0.22168 -0.05073,-0.44389 -0.113363,-0.66095 -0.03378,-0.11727 -0.07123,-0.23148 -0.110959,-0.33985 -1.222948,-3.33111 -4.023671,-5.19451 -7.684417,-5.11294 -0.884973,0.0197 -1.83107,0.1541 -2.81263,0.39912 -2.583488,0.64055 -5.649112,2.85836 -7.628102,5.51818 -2.906747,3.90575 -4.02301,8.2884 -3.913253,9.03685 0.234601,-0.0375 0.753987,-0.31208 1.301449,-0.60198 1.032357,-0.5468 2.591908,-1.37238 4.513982,-1.8949 0.245113,-0.0665 0.46066,-0.10241 0.640509,-0.10644 0.428087,-0.01 0.621154,0.16697 0.707535,0.31653 0.216201,0.37507 -0.0434,0.88581 -0.257508,1.23701 -2.229699,3.66051 -2.934043,7.85897 -2.49959,8.29314 0.05945,0.0592 0.164816,0.13782 0.393653,0.13277 0.650246,-0.0145 1.744983,-0.6595 3.013024,-1.4064 1.419806,-0.83663 3.186795,-1.87759 5.078803,-2.47283 0.193553,-0.0607 0.371292,-0.0934 0.527987,-0.097 0.478584,-0.0106 0.681875,0.24375 0.760664,0.39641 0.199203,0.38722 0.03246,0.90289 -0.221557,1.24261 -3.71322,4.97122 -3.930744,9.50293 -3.656172,10.40273 0.003,-0.002 0.009,-0.004 0.01984,-0.005 0.0012,0 0.003,0 0.0054,-1.1e-4 0.743534,-0.0165 3.157349,-1.46183 5.096902,-2.62354 0.756697,-0.45314 1.492002,-0.89338 2.131784,-1.25523 0.296277,-0.16806 0.631859,-0.26069 0.970446,-0.26825 0.70566,-0.0157 1.360595,0.32434 1.752317,0.90978 0.204072,0.30427 0.439448,0.59321 0.700202,0.85864 1.229439,1.25139 2.942097,1.94653 4.699102,1.90741 l 0.09503,-0.002 c 0.970386,-0.0216 1.69186,0.86945 2.527172,1.90114 0.918874,1.13502 2.062119,2.5475 3.885495,3.19438 0.09767,0.0349 0.170821,0.11775 0.193061,0.21878 0.02218,0.10172 -0.0095,0.2069 -0.0836,0.27963 -1.557821,1.52192 -3.689604,4.1499 -4.998566,8.02475 l -0.02891,0.0852 c -0.692989,1.97056 -1.101006,4.30473 -0.636427,4.74473 0.212601,-0.0359 0.802734,-0.3749 1.425631,-0.73284 0.880946,-0.50575 2.087304,-1.19904 3.583688,-1.86761 0.386613,-0.17304 0.790183,-0.33354 1.124382,-0.34099 0.340691,-0.008 0.510856,0.14654 0.593619,0.27686 0.193192,0.3045 0.112648,0.77484 -0.261349,1.52529 -1.766989,3.54342 -1.854981,8.02759 -1.532923,8.46193 0.05109,0.0534 0.0904,0.0802 0.117691,0.0796 0.147324,-0.003 0.498714,-0.29412 0.943512,-0.66213 0.950605,-0.78689 2.720473,-2.25129 6.201076,-4.08138 0.285819,-0.15089 0.547709,-0.22951 0.778276,-0.23468 0.325736,-0.007 0.595374,0.13122 0.759108,0.38943 0.162405,0.25647 0.199311,0.6214 0.08553,0.84944 -0.288938,0.57713 -0.842826,1.88289 -1.077366,2.58452 -0.752189,2.24968 -1.218632,6.82267 -0.611056,7.64691 0.01485,0.0209 0.04352,0.0548 0.06521,0.0544 0.03282,-6.1e-4 0.102063,-0.0287 0.197574,-0.10423 1.040286,-0.82282 2.416454,-1.8787 5.417042,-4.01282 0.354029,-0.25156 0.770762,-0.39005 1.204981,-0.39967 0.493245,-0.011 0.980052,0.14903 1.392277,0.46689 0.750266,0.57568 1.733443,0.86672 2.843755,0.84196 0.809532,-0.018 1.688486,-0.20079 2.611806,-0.54256 0.24807,-0.0919 0.50761,-0.14162 0.77112,-0.1476 0.83454,-0.0185 1.63637,0.39578 2.14519,1.10828 0.56386,0.78954 1.38735,1.54089 2.38171,2.17337 0.69858,0.44534 1.17655,1.21096 1.31143,2.09977 0.17005,1.1217 0.6603,1.95336 1.04138,2.45388 0.0596,0.0786 0.0771,0.18086 0.0469,0.27434 -0.0185,0.0574 -0.0429,0.11957 -0.0704,0.18887 -0.0225,0.0569 -0.0475,0.11905 -0.0721,0.18952 -1.17938,3.35473 -2.98736,4.60865 -4.06803,5.35841 -0.31023,0.2154 -0.69672,0.48284 -0.68722,0.59477 0.0727,0.85037 2.04157,1.10886 3.70523,1.07177 1.16784,-0.026 8.14148,-1.67508 10.91419,-8.34392 2.60165,-6.22811 -2.17884,-9.41642 -4.21452,-10.77798 -0.0739,-0.0494 -0.11661,-0.12683 -0.12754,-0.21498 -0.0228,-0.18451 -0.0163,-0.30685 3.70943,-4.47453 0.98277,-1.09869 1.64636,-1.55268 2.291,-1.56698 0.77083,-0.0172 1.36945,0.59007 2.20483,1.7181 0,0 5.67344,7.66492 5.77268,7.82473 0.38856,0.62426 0.70454,1.06582 1.24004,1.05386 0.10621,-0.002 0.22142,-0.0231 0.34213,-0.0616 0.64917,-0.2071 7.33556,-9.26587 7.95876,-10.54503 0.0455,-0.0932 0.13511,-0.15628 0.2382,-0.16734 0.009,-6e-4 0.017,-0.002 0.0252,-0.002 0.0939,-0.002 0.1847,0.0399 0.24331,0.11494 0.32873,0.41895 1.09919,1.40053 1.72593,1.38651 0.0992,-0.002 0.19134,-0.03 0.28166,-0.0856 0.67658,-0.41544 6.9778,-9.7651 7.64812,-11.72402 0.0347,-0.10002 0.11938,-0.17474 0.22284,-0.19644 0.0181,-0.004 0.0368,-0.006 0.0551,-0.006 0.0856,-0.002 0.16867,0.0326 0.22817,0.0971 0.47779,0.51957 1.00332,0.812 1.44169,0.80221 0.24998,-0.005 0.4496,-0.11157 0.57624,-0.30698 0.0119,-0.0179 4.14648,-7.05683 6.62593,-12.99248 1.30902,-3.13378 0.20449,-5.68909 -0.2254,-6.60128 -0.0658,-0.13915 -0.0159,-0.30523 0.11565,-0.38506 0.0487,-0.0294 0.10272,-0.0435 0.1561,-0.0435 0.091,0 0.18026,0.0411 0.23893,0.1186 1.71168,2.24406 3.40395,4.43818 5.07983,6.60945 3.6311,4.70241 7.06032,9.14474 9.89253,13.12395 8.15212,11.45103 9.18478,14.38678 9.95182,16.1669 0.45285,1.05086 0.59531,2.1212 1.09071,2.1831 0.8667,0.10837 2.3165,-1.29586 2.52694,-1.55556 0.631,-0.77663 15.32808,-19.14706 5.32285,-29.72815 -2.68376,-2.8387 -6.91301,-7.10787 -12.57102,-12.68899 -0.11445,-0.1133 -0.11973,-0.29645 -0.0117,-0.41559 0.0593,-0.0658 0.14084,-0.0992 0.22307,-0.0992 0.0675,0 0.13554,0.0228 0.19132,0.0686 3.64992,3.01244 7.70834,6.37474 10.13087,8.47677 l 0.85761,0.7472 c 4.27445,3.72914 6.22501,5.43146 13.41445,5.49307 1.52559,0.0129 2.90386,0.0182 4.1119,0.0182 3.52605,0 5.53648,-0.0411 5.62099,-0.0429 0.56237,-0.0112 1.64082,-0.12154 1.81147,-0.39388 0.19253,-0.30722 0.27295,-1.24851 0.24657,-1.81382 -0.004,-0.0663 -0.074,-1.69637 -0.0188,-8.25545 0.0611,-7.20879 -3.34585,-9.7487 -11.72572,-14.22511 -2.83282,-1.51322 -6.64473,-3.54661 -10.62862,-5.66853 -0.1415,-0.0757 -0.19902,-0.24951 -0.12971,-0.39449 0.051,-0.10801 0.15844,-0.17136 0.27114,-0.17136 0.0394,0 0.0787,0.008 0.11687,0.0237 3.73676,1.57933 7.3344,3.09081 10.52354,4.43031 l 4.72412,1.98524 c 1.69167,0.71258 3.44736,1.07419 5.21946,1.07474 11.48449,0 19.90548,-15.09681 20.25825,-15.73954 0.34454,-0.62632 1.31599,-1.93999 0.97849,-2.56984 -0.3381,-0.63012 -1.93354,-0.47901 -2.64558,-0.53918 -0.0804,-0.007 -8.12099,-0.69965 -16.50146,-2.7289 -9.85558,-2.38609 -38.10564,-10.10591 -48.02343,-12.81076 -2.39096,-0.65211 -0.0751,-1.12702 2.55458,-0.52595 3.00702,0.68733 9.63366,1.93883 11.9112,1.93883 10.31235,0 18.17702,-6.18539 28.03633,-22.05554 0.22625,-0.36424 0.77551,-1.5221 1.07605,-2.49885 0.35751,-1.16189 -1.73513,-0.78424 -2.8193,-0.78424 -0.0382,0 -0.0763,0.001 -0.1139,0.003 -3.56596,0.19253 -6.07474,0.27091 -8.65926,0.27091 -3.43329,0 -7.25639,-0.13796 -13.63522,-0.49254 -1.87776,-0.10446 -3.89876,-0.21302 -5.97381,-0.32457 l -0.12147,-0.006 c -6.85667,-0.36894 -13.93937,-0.86687 -18.60409,-1.10857 -0.71378,-0.037 -1.01432,-0.33749 0.1127,-0.93857 0.85679,-0.45701 2.10155,-0.57632 3.72387,-0.62368 6.94527,-0.20281 13.66922,-0.53184 20.21534,-0.91833 l 0.17905,-0.0106 c 2.51762,-0.14852 5.13207,-0.30289 7.95491,-0.45435 20.06159,-1.07564 27.95657,-17.83423 32.59262,-32.31407 0.23657,-0.73789 0.60612,-2.45265 0.005,-2.97859 -0.42784,-0.37441 -1.30044,0 -2.57369,0.3107 -8.50472,2.07534 -19.46754,4.46787 -76.29701,13.93869 -0.20898,0.0348 -0.73637,-0.37826 -6e-4,-1.06804 1.20216,-1.12703 3.62624,-1.81713 4.21459,-1.94179 11.65117,-2.46563 30.24822,-7.6373 48.23302,-12.638452 6.03128,-1.677675 12.86741,-3.578879 19.03609,-5.258904 8.04,-2.189415 13.75373,-6.584498 17.46709,-13.437028 3.25603,-6.009465 5.14834,-14.213699 5.95344,-25.811555 0.0562,-0.810193 0.0524,-3.228204 -0.42774,-3.324262 z M 115.89541,222.52908 c -1.6051,1.74613 -3.30862,3.59126 -4.89234,5.25642 -0.82324,0.86502 -1.75611,1.84521 -1.34245,3.22924 0.0863,0.28876 -0.0953,0.95391 -0.31862,1.16675 -5.10911,4.87019 -6.93099,5.88485 -8.09497,5.91077 -0.85943,0.0192 -1.33596,-0.55204 -1.749135,-1.13707 -0.01094,-0.015 -0.03685,-0.0579 -0.06401,-0.10536 -0.643279,-1.04318 -1.45979,-1.89099 -2.426738,-2.51937 -0.496557,-0.32306 -0.819871,-0.82838 -0.887191,-1.38643 -0.0321,-0.2682 -0.101402,-0.53027 -0.204006,-0.77695 l -0.04244,-0.0983 c -0.739693,-1.66738 -1.8922,-2.95748 -3.332924,-3.73095 -0.0889,-0.0479 -0.147805,-0.13644 -0.157056,-0.23665 -0.0096,-0.10013 0.03168,-0.19853 0.109811,-0.26194 0.718294,-0.58202 1.587453,-1.37756 2.805592,-2.49267 l 1.187971,-1.08333 c 0.144745,-0.13008 0.299878,-0.27031 0.458328,-0.42058 0.369723,-0.35055 0.853771,-0.54979 1.363425,-0.56116 0.656071,-0.0146 1.28546,0.2866 1.68392,0.80617 1.429533,1.86401 2.231143,3.06916 3.006293,4.23435 0.30648,0.46116 0.60661,0.91244 0.93757,1.3912 0.0837,0.12082 0.16793,0.25226 0.254,0.38656 0.34761,0.5418 0.73963,1.1525 1.20091,1.19506 0.95439,-0.6871 8.62233,-9.27572 8.9638,-10.05189 0.0679,-0.15417 0.22025,-0.24855 0.40743,-0.2527 0.37409,-0.008 1.02952,0.38037 1.23238,0.82913 0.11613,0.25637 0.0796,0.51494 -0.0996,0.70969 z"
   id="path243"
   inkscape:connector-curvature="0"
   style="fill:#35000f;stroke-width:0.60107809" /><path
   class="st1"
   d="m 138.32218,106.05199 c 1.64491,1.16899 2.95732,1.88114 4.61664,2.83576 3.62601,2.08593 5.61637,1.64925 7.90748,1.16435 15.72896,-3.329 43.97783,-11.558424 67.15167,-17.868896 15.38819,-4.190362 20.43798,-16.405831 21.88399,-37.488224 -14.90451,7.967169 -76.95344,25.826642 -110.77857,36.493367 -5.75351,1.814367 -7.94913,6.800484 -7.94913,6.800484 l 2.17915,-7.22021 c 0.0183,-0.894585 -0.29754,-1.328984 -2.0697,-2.116883 -2.53037,-1.124858 -7.68021,-3.214914 -11.8889,-4.967604 -3.31664,-1.381283 -4.88666,-0.796008 -6.00189,-0.469322 -0.42772,0.125259 -2.42331,-5.323207 3.05775,-7.902493 l 32.74757,-14.091254 c 0,0 -2.44056,3.344098 -14.58486,9.362518 -5.86742,2.907709 -6.88336,3.334775 -9.2426,4.621263 -5.37935,2.933501 -5.9318,4.659136 -3.22412,5.695996 2.97793,1.140305 7.15235,2.922922 7.95293,3.224123 1.99041,0.748823 4.63148,1.654888 7.09308,0.752309 9.67248,-3.546541 58.28377,-20.745008 75.38438,-28.761039 8.98185,-4.210252 14.94165,-10.657361 17.03822,-19.224887 2.56179,-10.468196 1.77247,-22.559362 1.78443,-22.56369 C 195.39678,29.9144 107.69925,63.765555 84.680599,76.359216 c -6.119035,3.347711 -7.598288,7.39266 -8.536811,11.408582 -1.324602,5.66786 0.551182,11.582114 1.091317,12.160958 2.337767,2.504804 4.418459,-1.771497 17.496722,9.671224 10.620613,9.29242 20.115503,20.24791 23.495243,24.06229 6.12456,6.91229 1.31594,10.01787 -7.60004,14.52595 l 2.00358,-2.00363 c 3.10558,-2.80499 5.6101,-5.00895 -0.047,-9.53869 -2.37024,-1.8979 -6.00489,-1.98848 -10.67484,-0.69617 -15.928574,4.40789 -40.726224,12.57288 -50.487913,15.9451 -5.509902,1.90345 -7.057197,3.50699 -6.443677,4.58094 0.787887,1.32442 1.144807,1.93793 1.935592,3.25815 0.661666,1.05915 1.051886,0.97675 2.554582,0.97675 0.601078,-1.65296 2.555483,-2.09337 6.912397,-2.47944 5.935647,-0.52595 14.676338,-1.32743 14.676338,-1.32743 0,0 -0.100194,1.60289 -3.606469,2.50451 -1.60019,0.41149 -1.839473,1.20606 -2.704851,2.40431 -1.30235,1.80323 -2.404313,1.90344 -4.908819,1.90344 -4.232912,0 -3.294454,0 -5.610048,0 -2.805045,0 -1.989382,1.18671 -0.626137,3.83188 2.803843,5.44035 2.078709,5.18429 1.820966,6.95176 -0.173711,1.19122 0.408132,1.83882 4.615679,2.23955 l 18.957522,1.07696 c 0.662021,0 0.695153,-1.08639 -0.123708,-2.57966 -0.760316,-1.38643 -3.105596,-5.50989 -3.105596,-5.50989 0,0 1.029051,0.8325 2.742418,2.37931 2.704852,2.44188 3.231456,2.49014 5.720761,2.68159 l 11.342578,0.82107 c 1.404184,0.12767 1.743727,-0.55894 0.348631,-2.3787 -1.735919,-2.26421 -4.205268,-5.16693 -5.781409,-7.23736 -1.740121,-2.28583 4.56098,-7.08532 8.207655,-9.20076 l -1.442828,1.61474 c -4.007207,5.10916 -3.068978,7.36941 -0.400739,10.31847 1.903434,2.10377 28.318225,30.22317 31.302575,33.65281 1.83071,2.10394 4.61197,2.5119 8.96978,-5.00158 0.056,-0.0967 0.90162,4.65835 -2.12386,8.26789 -8.00623,9.55172 -16.76838,17.85448 -22.32337,23.68139 -2.14242,2.24731 0.18074,0.46469 2.05887,2.87033 5.13382,6.57568 10.7477,14.36992 14.86287,19.81562 0.004,-0.002 1.94058,-2.40865 3.14376,-4.02037 2.2976,-3.07789 2.72095,-3.95305 2.81056,-5.94634 0.0614,-1.3674 0.18226,-3.66202 -0.22166,-5.95128 -0.3829,-0.90455 2.97358,4.41011 4.41167,6.27929 0.001,-6e-4 1.72388,-2.50038 2.70419,-3.96244 2.26028,-3.35894 2.84418,-4.09881 2.89052,-6.55367 0.0263,-1.39438 0.15598,-3.85532 -0.36948,-6.38374 -0.0839,-0.40374 4.3387,6.10207 4.3387,6.10207 0,0 1.62621,-2.91222 3.56589,-6.40358 3.30973,-5.95746 4.187,-7.7122 0.58053,-12.52082 -3.39584,-4.52773 -4.40795,-5.59604 -4.40795,-6.25799 0,-11.22016 0.85402,-10.87176 -3.95046,-16.80068 -4.6705,-5.76362 -12.55803,-14.467 -18.48977,-21.06724 -1.39142,-1.54826 -4.20755,-3.2058 -9.46698,-4.40795 h 9.66733 c 6.1111,0 8.51528,-3.20574 8.31495,-5.50984 1.49272,-0.24879 3.00706,0.29975 3.9941,1.44691 l 6.42456,6.56743 c 0,0 -5.61004,-4.30774 -8.01435,-3.10558 -4.97927,2.48966 -6.05864,3.33381 -4.40794,5.10916 1.90342,2.25404 11.22987,13.05331 14.16752,15.87194 4.28076,4.10742 5.78646,3.71076 12.16077,3.56909 l 7.71166,-0.17142 c 1.34575,-0.0299 1.11415,-0.59862 1.08331,-1.97953 -0.0488,-2.18155 -0.0777,-3.47497 -0.1776,-7.95233 -0.0616,-2.75744 -0.68163,-5.06167 -4.03943,-7.97336 -1.27928,-1.10936 -3.50826,-2.93477 -6.96325,-5.47174 -0.75472,-0.5542 -1.1004,-0.72208 -4.10741,-1.90343 -2.80499,-1.10196 -3.20573,-1.30229 -3.20573,-1.30229 0,0 5.96071,0.12519 7.86409,-0.0751 1.368,-0.14402 1.48297,-0.56911 1.45262,-1.92851 -0.0267,-1.1953 -0.12095,-1.48088 -0.20965,-5.45448 -0.0325,-1.45359 -0.34582,-2.47686 -1.13779,-3.15188 -1.00614,-0.85761 -2.0769,-0.97927 -2.0769,-0.97927 0.98377,-1.24188 3.33021,-2.02004 5.68812,-1.77738 4.79846,0.49366 12.67728,1.39871 12.66297,1.42508 0.007,-0.0131 -11.24941,-0.14702 -11.17915,3.00005 0.0634,2.83691 0.0213,4.65787 0.009,5.63559 -0.0367,2.94359 1.06799,2.85211 3.53825,3.37536 3.13468,0.66399 5.03469,0.9753 8.63359,1.73381 12.0253,2.53438 20.59732,0.74382 33.62069,-20.24402 -7.41332,0.39972 -11.49375,0.39088 -22.52473,-0.22192 -7.98912,-0.44383 -18.59051,-0.96918 -24.74399,-1.44247 -5.51013,-0.42388 -9.3176,2.02781 -9.3176,2.02781 l 3.7779,-4.105 c 1.57433,-1.45323 1.51381,-1.69547 0.66743,-3.21367 -0.62104,-1.11392 -1.91636,-2.70437 -3.86986,-5.74986 -1.50059,-2.33934 -3.88098,-2.43808 -4.79775,-2.41765 0.28119,-0.80676 0.97273,-2.59281 4.43878,-2.95911 4.11644,-0.435 14.53493,-1.60513 14.53438,-1.6038 0.006,-0.0187 -11.88277,3.13348 -10.63963,5.20708 0.91768,1.5307 2.36572,4.03257 3.08431,5.24146 0.98288,1.6538 3.70457,1.86208 6.073,1.80948 10.30915,-0.22918 17.88068,-0.82257 28.28331,-1.38049 18.6806,-1.00175 26.09388,-16.46365 30.70216,-30.85533 -8.61543,2.40432 -20.23631,4.6083 -76.51671,13.98776 -4.4378,0.73957 -6.377,4.32986 -6.377,4.32986 0,0 0.85402,-2.86221 1.88336,-5.95037 0.28749,-0.86242 0.83802,-1.78737 -0.78718,-2.84592 -1.73182,-1.12799 -4.10416,-2.25435 -9.11565,-5.14271 -3.35653,-1.93439 -5.27956,-1.83449 -7.35214,-1.58895 -0.0139,-2.11153 2.49838,-3.58651 4.55773,-4.2572 4.25809,-1.3868 17.26705,-5.59464 17.17034,-5.539112 -11.06976,6.355322 -12.01675,7.757572 -9.07082,9.851132 z"
   id="path245"
   inkscape:connector-curvature="0"
   style="fill:#c1852a;stroke-width:0.60107809" /><path
   class="st1"
   d="m 47.89185,102.415 c 9.217238,8.68075 24.368252,22.82893 28.05803,26.28285 4.367914,4.08877 5.335704,5.94365 5.681384,7.77249 0.138494,0.73289 0.179007,1.79138 1.655069,1.21039 l 17.022177,-5.42108 c 3.10558,-1.0018 4.82948,-2.94871 1.56034,-6.294 -2.447292,-2.50427 -1.55933,-1.71506 -3.469124,-3.62487 -1.659823,-1.6598 -2.51107,-2.693 -4.855696,-3.31362 -2.554581,-0.67621 -5.460193,-0.0111 -6.365897,0.31826 -0.399411,0.1453 1.606988,-1.58562 0.658841,-4.9171 -0.5088,-1.78774 -0.604197,-2.69825 -1.559076,-5.45683 -0.249087,-0.71943 -0.682037,-1.17956 -1.379288,-1.48538 -1.131776,-0.49637 -4.564713,-1.64425 -6.604586,-2.33965 -2.429617,-0.82828 -3.130595,-1.63842 -8.139565,-1.63842 -0.174492,0 1.12017,-1.34345 1.12017,-4.946562 0,-2.864678 -0.230868,-4.082156 -0.424356,-10.291539 -0.07989,-2.563237 -0.635706,-3.192079 -2.501993,-3.932127 -4.357816,-1.728099 -6.987827,-2.755167 -10.556554,-4.320368 -4.282681,-1.878369 -7.798441,-0.0012 -7.798441,-0.0012 0.120877,-0.01761 -2.134134,-4.995265 3.561327,-8.14275 4.083965,-2.256868 10.461223,-5.813387 10.209853,-5.588524 -9.638648,8.621924 -7.985804,8.321572 -1.749619,10.951288 5.234609,2.207393 6.832515,1.669609 9.041357,0.525757 11.220084,-5.810441 22.440228,-11.420483 37.066427,-19.434838 10.39428,-5.695521 15.3427,-7.997349 17.57222,-18.049659 2.68731,-12.116406 0.99845,-21.335735 1.01017,-21.340436 -12.47417,9.477078 -59.360354,33.859095 -85.44347,47.398559 -16.488846,8.559172 -13.137048,20.136597 -10.001044,24.575973 1.588884,2.2493 2.721736,-1.596283 16.631344,11.503686 z"
   id="path247"
   inkscape:connector-curvature="0"
   style="fill:#c1852a;stroke-width:0.60107809" /><path
   class="st3"
   d="m 95.46718,219.40407 c -0.569522,-0.90569 -2.169411,-3.35383 -4.017486,-5.71421 -0.793423,-1.01347 -1.725929,-1.36245 -2.897677,-0.23573 -2.606816,2.06056 -4.500506,3.95792 -4.502369,3.9581 -0.766261,0.67117 -0.533704,2.27701 0.56586,3.40828 1.51711,1.56112 4.695857,0.29544 4.694775,0.2955 0,0 -0.856236,0.82179 -2.233793,1.43026 -3.372408,1.48695 -5.24663,0.66155 -8.928948,-7.76965 -1.050631,-2.39379 -3.688336,-4.45977 -8.592778,-2.44092 -6.048402,2.48708 -9.003128,10.82626 -9.004805,10.83035 0.0024,-6e-4 4.918201,-3.55959 8.099641,-4.6616 0.117992,-0.0409 0.224744,-0.0907 0.382587,-0.0759 0.379647,0.0361 0.659448,0.41235 0.6437,0.81543 -0.121478,3.04752 2.724928,4.70349 5.200101,4.15453 0.841569,-0.18567 1.512493,0.42359 2.025639,1.1575 2.99932,4.28959 3.910428,4.49624 5.681985,3.82977 2.363866,-0.88767 3.94963,-1.78887 6.54797,-1.26858 0.913573,0.18298 1.688303,-0.61557 5.402785,-4.00017 1.577529,-1.43741 2.173745,-1.73935 0.932813,-3.71299 z"
   id="path249"
   inkscape:connector-curvature="0"
   style="fill:#a09e9f;stroke-width:0.60107809" /><path
   style="fill:#a09e9f;stroke-width:0.60107809"
   inkscape:connector-curvature="0"
   id="path251"
   d="m 62.187837,202.73149 c 2.005377,-0.68745 4.019944,-0.5397 5.24128,-0.0103 0.595182,0.2584 1.193074,-0.29892 1.005003,-0.9488 -0.01917,-0.0666 -0.04045,-0.13152 -0.06372,-0.19493 -0.865246,-2.35075 -3.149163,-4.6003 -8.015431,-3.38972 -6.121084,1.51628 -9.700805,9.49288 -9.704105,9.49776 0.0012,-6e-4 3.431789,-1.89202 6.594368,-2.31553 0.721474,-0.0966 1.319426,-0.60361 1.901991,-1.04066 0.969058,-0.72693 2.011682,-1.24477 3.040614,-1.59785 z"
   class="st3" /><path
   style="fill:#c3c6c4;stroke-width:0.60107809"
   inkscape:connector-curvature="0"
   id="path253"
   d="m 63.50341,201.12837 c 3.48421,-0.46766 1.835573,-1.72401 -0.0357,-2.06845 -0.841275,-0.0709 -1.789529,0.0207 -2.838898,0.28246 -3.170867,0.79017 -5.638232,3.55651 -7.177954,5.79632 0.0012,-0.003 3.978422,-3.20321 10.05255,-4.01033 z"
   class="st4" /><path
   style="fill:#a09e9f;stroke-width:0.60107809"
   inkscape:connector-curvature="0"
   id="path257"
   d="m 67.156468,211.24373 c 1.375267,-0.62958 2.993964,-1.22013 4.068157,-1.10376 0.727364,0.0786 1.367513,-0.50798 1.335175,-1.27639 -0.0214,-0.50636 -0.126654,-0.97844 -0.311178,-1.38015 -1.080559,-2.34348 -3.661287,-4.5962 -8.53219,-2.7807 -5.903482,2.19705 -9.244334,10.64564 -9.246979,10.65021 4.75e-4,-6e-4 2.88018,-2.1372 6.067042,-3.18441 1.845129,-0.60623 2.473611,-0.50741 2.819838,-0.10127 1.031504,1.20979 2.732134,-0.33462 3.800135,-0.82353 z"
   class="st3" /><path
   style="fill:#c3c6c4;stroke-width:0.60107809"
   inkscape:connector-curvature="0"
   id="path259"
   d="m 67.480864,208.03528 c 3.302684,-0.33083 2.826149,-2.18372 0.753271,-2.67407 -1.167293,-0.27662 -2.555123,-0.13272 -4.133427,0.45743 -3.080285,1.15088 -5.442227,4.23796 -6.906574,6.68567 6.01e-4,-0.005 2.909639,-3.74462 10.28673,-4.46903 z"
   class="st4" /><path
   class="st4"
   d="m 70.146525,216.42676 c 4.213443,-1.27586 6.047928,-0.77893 5.725035,-2.63266 -0.0116,-0.067 -0.0119,-0.12894 -0.0063,-0.18808 -0.432409,-0.38468 -0.98697,-0.70061 -1.716973,-0.84241 -1.155098,-0.2239 -2.560352,3e-4 -4.179603,0.66851 -3.052689,1.25939 -5.281066,4.20929 -6.669502,6.6103 0.0012,-6e-4 3.65197,-2.64828 6.847361,-3.61566 z"
   id="path263"
   inkscape:connector-curvature="0"
   style="fill:#c3c6c4;stroke-width:0.60107809" /><path
   class="st3"
   d="m 111.82467,251.47166 c -4.28754,-3.28068 -0.0956,-6.87309 -0.18501,-6.68767 -1.30108,2.69687 0.22812,4.40134 2.59402,1.86976 4.06805,-4.35298 4.26742,-4.35743 1.28265,-8.49363 -2.0123,-2.78852 -3.71841,-5.72088 -4.81723,-4.4829 -5.62339,5.91568 -7.61716,5.96004 -8.58682,6.15534 -1.02712,0.2069 3.43312,0.78915 4.82551,4.95132 1.20462,3.6114 -0.0552,5.82979 -1.76469,7.48319 -0.81003,0.78338 0.84925,2.91437 3.36092,3.94806 0.64501,0.26551 1.16261,0.78957 1.01142,1.50204 -0.46828,2.2062 1.01944,3.31902 1.01986,3.31866 -1.8e-4,2.9e-4 0.45105,0.59069 -0.27998,2.30236 -1.14818,2.69307 -3.02618,4.07154 -3.02618,4.07154 -0.001,0.005 6.52571,-1.05016 9.02018,-7.03551 2.26344,-5.40512 -2.46171,-7.37158 -4.45465,-8.90256 z"
   id="path265"
   inkscape:connector-curvature="0"
   style="fill:#a09e9f;stroke-width:0.60107809" /><path
   style="fill:#a09e9f;stroke-width:0.60107809"
   inkscape:connector-curvature="0"
   id="path267"
   d="m 87.836073,234.77472 c 1.802573,-0.85335 3.674691,-0.93131 4.911349,-0.56963 0.669426,0.19589 1.304706,-0.48111 1.027308,-1.14458 -0.0081,-0.0194 -0.01641,-0.0386 -0.02488,-0.0578 -1.032232,-2.32256 -3.432823,-4.40759 -8.062928,-2.70131 -5.822583,2.14122 -8.65318,10.65027 -8.655284,10.65447 6.01e-4,-5.4e-4 3.026314,-2.15913 5.994017,-2.94979 0.664245,-0.17683 1.254805,-0.57277 1.749552,-1.0728 0.943699,-0.95356 2.002317,-1.65736 3.06087,-2.1586 z"
   class="st3" /><path
   style="fill:#c3c6c4;stroke-width:0.60107809"
   inkscape:connector-curvature="0"
   id="path269"
   d="m 87.711295,233.58081 c 0.447136,-0.19252 1.34701,-0.41409 1.811709,-0.53221 2.250491,-0.88002 1.74288,-1.57036 0.7356,-1.9889 -1.158284,-0.37922 -2.58356,-0.26248 -4.240125,0.34964 -3.087985,1.13996 -5.292553,4.32741 -6.597313,6.79496 0.0012,-10e-4 3.902794,-3.26693 8.290129,-4.62349 z"
   class="st4" /><path
   style="fill:#a09e9f;stroke-width:0.60107809"
   inkscape:connector-curvature="0"
   id="path273"
   d="m 89.358069,244.36396 c 0.0078,0.57872 0.658895,0.79877 1.046897,0.39239 0.979217,-1.02502 1.803709,-1.9006 2.788816,-2.56269 0.981501,-0.65916 2.056835,-1.14524 2.976665,-1.33362 1.232264,-0.25234 2.349188,-1.02621 1.312088,-2.76928 -0.01346,-0.0225 -0.02663,-0.0453 -0.04027,-0.0675 -1.321103,-2.13857 -4.047233,-3.97023 -8.424043,-1.4685 -5.303131,3.0319 -7.388217,11.81283 -7.388632,11.81566 0.0018,-5.1e-4 4.060397,-3.30985 6.018174,-4.50227 1.613408,-0.98126 2.227355,-0.9776 2.227355,-0.9776 0.470764,-0.28269 -0.529129,0.56315 -0.517047,1.47342 z"
   class="st3" /><path
   style="fill:#c3c6c4;stroke-width:0.60107809"
   inkscape:connector-curvature="0"
   id="path275"
   d="m 92.700838,239.81429 c 4.442388,-1.26449 2.793691,-2.81551 0.838149,-3.2597 -1.181959,-0.16735 -2.533724,0.1743 -4.027523,1.02982 -2.780287,1.59316 -4.625302,5.0024 -5.694193,7.6234 1.2e-4,-0.003 2.794165,-3.66969 8.883567,-5.39352 z"
   class="st4" /><path
   style="fill:#a09e9f;stroke-width:0.60107809"
   inkscape:connector-curvature="0"
   id="path279"
   d="m 88.285679,255.36033 c -0.0012,-0.002 1.447757,-8.55711 6.909152,-12.16065 4.430006,-2.92101 7.122239,-1.43231 8.624259,0.58749 1.19833,1.61912 1.30597,5.28638 -1.5239,7.25544 -2.01553,1.40298 -4.497691,2.06848 -5.668585,1.17222 -1.476794,-1.13069 -0.01671,-3.26047 1.017986,-3.87414 0,0 -0.675792,-0.0329 -2.274846,0.9255 -2.128892,1.27836 -7.080219,6.09289 -7.084066,6.09414 z"
   class="st3" /><path
   style="fill:#c3c6c4;stroke-width:0.60107809"
   inkscape:connector-curvature="0"
   id="path281"
   d="m 97.266507,246.65299 c 4.378493,-2.32346 4.727843,-3.22262 2.894193,-3.90646 -1.246578,-0.148 -2.717596,0.33082 -4.375905,1.42635 -2.738998,1.80998 -4.397968,5.05542 -5.337152,7.61781 -3.61e-4,-0.001 2.447343,-2.81953 6.818864,-5.1377 z"
   class="st4" /><path
   class="st4"
   d="m 114.49737,255.96085 c -0.0979,1.70664 -0.8899,2.86896 -1.78146,3.56938 -0.30788,0.24188 -0.43417,0.65772 -0.46435,1.0462 -0.25281,3.26539 -1.67657,4.50302 -1.67657,4.50302 1.71691,-0.93111 3.65407,-2.50329 4.73481,-5.08846 0.57901,-1.38274 0.59939,-2.64315 0.29854,-3.56363 -0.42663,-1.3044 -1.07832,-1.03068 -1.11097,-0.46651 z"
   id="path285"
   inkscape:connector-curvature="0"
   style="fill:#c3c6c4;stroke-width:0.60107809" /><path
   class="st1"
   d="m 112.91383,193.09045 c -0.91243,-1.10389 -2.09432,-1.05064 -3.19455,-0.12912 -5.00205,4.17077 -13.13139,11.67163 -18.18261,15.8357 -2.127936,1.77739 -0.202383,0.42454 2.058632,3.53434 4.096227,5.33198 8.883338,11.87924 11.883798,16.2959 -6e-4,2.3e-4 2.30442,-2.50254 5.25588,-5.82031 1.75293,-1.97045 1.96445,-2.3183 1.94299,-4.17774 -0.0286,-2.47541 -0.6788,-6.20666 -0.6788,-6.20666 l 4.32577,6.23216 c 0,0 1.14344,-1.57375 2.0765,-2.83883 4.66232,-6.32172 6.92074,-8.4416 3.4524,-13.2777 -2.02027,-2.4102 -6.93043,-7.01483 -8.94001,-9.44774 z"
   id="path287"
   inkscape:connector-curvature="0"
   style="fill:#c1852a;stroke-width:0.60107809" /><path
   class="st2"
   d="m 157.41093,45.829914 c -21.14461,9.016237 -64.515577,27.824451 -71.327781,31.23052 -5.1326,2.566303 -7.814015,6.812258 -8.715632,11.520683 -0.879738,4.593986 0.432235,9.453149 0.946998,10.123658 0.455623,0.593558 0.88329,0.612853 1.387889,0.70813 4.050491,0.764755 7.128606,1.852995 15.726133,9.375365 9.449913,8.26802 19.429613,18.66558 23.940343,23.7423 3.42066,3.85043 4.78241,7.5431 1.67682,10.54849 -3.1089,3.00858 -5.91275,4.1882 -6.01078,4.20754 6.61186,-1.30234 10.41873,-2.60471 13.54649,-5.67447 3.90202,-3.82959 3.03588,-10.24116 -2.676,-16.33388 -4.24577,-4.52876 -14.85059,-15.10882 -21.6995,-21.29031 -3.51421,-3.17182 -7.72922,-4.634416 -13.172883,-4.634416 H 80.60883 c 0.298976,-0.02603 11.790688,-4.610828 11.790688,-4.610828 1.151485,-0.550154 1.591534,-1.912925 1.018773,-3.282229 -1.50222,-3.591387 -3.147732,-10.624301 4.473578,-14.716861 7.624621,-4.094304 85.049361,-35.74383 97.587381,-41.907338 13.82479,-6.796096 21.62762,-12.96508 24.7795,-18.452737 -19.75822,11.514613 -38.00322,18.852514 -62.84782,29.446383 z"
   id="path289"
   inkscape:connector-curvature="0"
   style="fill:#d8a743;stroke-width:0.60107809" /><path
   class="st2"
   d="m 121.79909,79.933587 4.51386,1.827031 c 2.58415,0.976578 3.91614,0.494513 6.12583,-0.322412 17.73281,-6.555785 49.16565,-17.499481 66.20255,-24.718495 12.68167,-5.373584 17.82088,-12.061527 19.79219,-20.114717 1.85293,-7.5713 1.93144,-16.015659 1.82523,-20.221463 l -2.71741,7.078951 c -5.46602,14.019791 -14.41801,18.596514 -22.12419,22.080182 l -68.99673,27.620199 c -3.91819,1.968657 -7.52303,5.373572 -4.62133,6.770724 z"
   id="path291"
   inkscape:connector-curvature="0"
   style="fill:#d8a743;stroke-width:0.60107809" /><path
   class="st2"
   d="m 207.47177,81.584755 -55.59262,15.815434 c -5.57652,1.770836 -7.79202,5.299241 -5.83707,6.615291 l 0.96688,0.65091 c 3.54733,2.38803 7.67462,3.24733 11.18793,2.33159 8.85856,-2.30888 23.10935,-5.55483 34.78414,-8.945682 8.16211,-2.370411 16.60172,-4.821355 24.70318,-7.027744 13.13824,-3.577311 19.07634,-13.259777 20.84309,-34.294859 l -1.43945,2.249108 C 227.65868,74.9899 219.68941,77.782515 207.47177,81.584755 Z"
   id="path293"
   inkscape:connector-curvature="0"
   style="fill:#d8a743;stroke-width:0.60107809" /><path
   class="st2"
   d="m 162.96055,128.69082 0.91231,1.635 c 1.28518,2.30314 3.73097,3.70779 6.36111,3.65322 4.00034,-0.083 19.67237,-0.86999 22.9675,-1.11633 18.16287,-1.35789 25.31908,-16.66265 28.52481,-27.45645 l -3.03155,3.28375 c -6.61611,6.66564 -13.3979,12.14916 -25.8202,13.55167 l -19.97454,2.35995 c -5.00897,0.59963 -10.80085,2.54537 -9.93944,4.08919 z"
   id="path295"
   inkscape:connector-curvature="0"
   style="fill:#d8a743;stroke-width:0.60107809" /><path
   class="st2"
   d="m 167.23241,158.15609 c 0,0.90162 -0.11072,1.8441 2.20008,2.30861 1.44179,0.28985 10.1225,1.82771 12.12175,1.89894 5.61005,0.19984 9.48789,-1.15984 14.72642,-6.29733 5.91058,-5.79668 9.54079,-11.53095 9.54079,-11.53095 l -6.43274,4.71882 c -4.70619,3.3536 -10.49927,4.83056 -16.2413,4.14078 0,0 -6.11405,-0.54068 -8.20503,-0.79884 -3.90326,-0.48196 -7.70997,0 -7.70997,1.9535 z"
   id="path297"
   inkscape:connector-curvature="0"
   style="fill:#d8a743;stroke-width:0.60107809" /><path
   class="st2"
   d="m 136.87413,168.92541 c -0.90161,0.90162 0.19043,1.9561 1.81705,3.90865 2.76834,3.32306 6.75733,8.38468 8.45374,10.0127 4.1255,3.95814 6.0456,3.90003 12.01003,3.76743 l 7.69867,-0.17113 -0.58017,-0.37056 c -6.03301,-3.85399 -7.90771,-4.37111 -12.96988,-9.43326 l -6.61186,-6.31132 c -3.70666,-3.40614 -6.51165,-4.10736 -7.81401,-3.1056 -1.06031,0.81568 -1.4201,1.11957 -2.00357,1.70309 z"
   id="path299"
   inkscape:connector-curvature="0"
   style="fill:#d8a743;stroke-width:0.60107809" /><path
   class="st2"
   d="m 111.34315,193.46678 c -0.23831,0.005 -0.5427,0.15334 -0.85906,0.41774 -2.37954,1.98417 -5.5531,4.79914 -8.6218,7.52155 -2.612159,2.31666 -5.292793,4.69423 -7.594195,6.66059 -0.856482,0.73182 -0.981146,2.02954 -0.24188,2.88068 0.170466,0.19624 0.343216,0.4125 0.516693,0.65119 0.32121,0.41817 0.645798,0.84266 0.972604,1.27195 1.414391,1.85775 4.112811,2.09813 5.824268,0.51259 l 5.86869,-5.43663 c 2.84689,-2.63728 4.52261,-6.30837 4.65342,-10.19404 l 0.1311,-3.89613 c -0.32825,-0.39664 -0.57008,-0.3913 -0.64984,-0.38949 z"
   id="path301"
   inkscape:connector-curvature="0"
   style="fill:#d8a743;stroke-width:0.60107809" /><path
   class="st2"
   d="m 137.95974,198.2564 c -0.1296,1.24863 0.0755,5.36385 -2.84786,8.61965 -5.37861,5.99034 -11.4099,11.93356 -15.5958,16.48125 -1.48593,1.61474 -2.91721,3.16979 -4.28509,4.63444 -0.84601,0.90595 -0.89361,2.30652 -0.0832,3.24505 0.0604,0.0699 0.12039,0.1428 0.17979,0.2189 0.56021,0.71756 1.12726,1.45136 1.69798,2.19574 1.53612,2.00352 4.50978,2.1153 6.1944,0.23659 l 11.576,-12.87354 c 1.84579,-2.05845 3.99476,-4.85351 4.82574,-11.42606 0.80552,-6.37077 -1.66197,-11.33202 -1.66197,-11.33202 z"
   id="path303"
   inkscape:connector-curvature="0"
   style="fill:#d8a743;stroke-width:0.60107809" /><path
   class="st2"
   d="m 41.909927,67.395279 c -6.548211,3.39891 -10.453289,7.556272 -11.606764,12.356181 -1.013778,4.217765 0.375974,8.199066 2.014339,10.518446 0.2043,0.289239 0.52167,0.489458 1.390047,0.726289 1.156721,0.315434 2.600745,0.628301 5.75623,2.797417 2.268289,1.559245 5.269652,3.974437 9.316224,7.785448 7.308574,6.8832 18.45725,17.30618 24.446807,22.90578 l 3.608452,3.37451 c 3.040499,2.8461 4.678852,4.38906 5.372797,6.42443 0.368647,1.0814 0.950364,2.16497 2.57262,0.48032 2.604651,-2.70485 5.235744,-6.53269 -1.402502,-13.1235 -6.478419,-6.43208 -26.42237,-25.205316 -26.42237,-25.205316 -3.521356,-3.563251 -8.428371,-5.608719 -13.503995,-5.628976 h -9.691663 l 10.700212,-4.915075 c 1.427981,-0.622236 2.087418,-2.153182 1.595081,-3.598601 -1.150289,-3.37685 -1.771143,-9.587069 6.517484,-14.01708 5.816278,-3.10859 36.538274,-19.279694 53.307884,-28.102919 7.19538,-3.78583 13.2492,-9.182243 17.65292,-15.734 l 2.16906,-3.227195 C 110.76275,31.65422 66.287971,54.740842 41.909927,67.395279 Z"
   id="path305"
   inkscape:connector-curvature="0"
   style="fill:#d8a743;stroke-width:0.60107809" /><path
   class="st1"
   d="m 160.31618,193.46943 c -0.81542,-0.78923 -1.59467,-1.50692 -3.30593,-1.5027 -0.054,1.1e-4 -1.27021,0 -2.00364,0 -1.4025,0 -2.00537,0.22276 -1.99978,2.40432 0.004,1.57138 0.009,7.10931 0.0126,8.31488 0.006,2.41135 0.36087,2.85458 1.36204,4.20754 7.11861,9.62074 14.25485,18.38326 19.50047,25.75206 8.6747,12.18584 10.22206,16.68971 10.22206,16.68971 0,0 14.2807,-17.595 5.42749,-26.95744 -7.94733,-8.40458 -27.19337,-26.95127 -29.21528,-28.90837 z"
   id="path307"
   inkscape:connector-curvature="0"
   style="fill:#c1852a;stroke-width:0.60107809" /><path
   class="st1"
   d="m 202.34968,199.6568 c -7.23488,-3.86511 -21.6301,-11.53355 -28.04589,-14.91792 -0.98913,-0.52173 -2.22186,-1.03127 -2.1212,1.34907 v 3.45156 c 0,1.90537 -0.35434,2.28266 -2.02293,2.26829 l -4.45735,-0.0306 c -2.08827,-0.0179 -1.70242,0.95637 -0.10127,2.30164 6.5491,5.50245 19.58636,16.08232 24.79962,20.60543 4.93978,4.28587 6.0852,5.66776 12.91206,5.72642 5.97353,0.0513 9.67166,-0.0239 9.67166,-0.0239 0,0 -0.0793,-1.52938 -0.0216,-8.37831 0.0505,-5.99281 -2.37023,-7.94805 -10.61306,-12.35162 z"
   id="path309"
   inkscape:connector-curvature="0"
   style="fill:#c1852a;stroke-width:0.60107809" /><path
   class="st1"
   d="m 165.82602,166.3207 c -2.03104,-0.39886 1.5027,2.10378 3.28766,4.13458 0.003,0.003 0.005,0.006 0.008,0.009 1.69824,2.03134 2.39296,4.15651 2.79995,6.23979 0.0588,0.30096 0.13218,1.35285 0.2043,1.81309 0.18953,1.20997 0.97916,2.23758 2.09699,2.73022 11.19051,4.93191 26.08312,11.14586 34.81174,14.81989 12.40451,5.22113 22.81805,-13.73849 22.81805,-13.73849 0,0 -8.18414,-0.68962 -16.8205,-2.78065 -12.49383,-3.02504 -48.84528,-13.15669 -49.20593,-13.22757 z"
   id="path311"
   inkscape:connector-curvature="0"
   style="fill:#c1852a;stroke-width:0.60107809" /><path
   class="st2"
   d="m 176.47831,176.71377 0.18839,1.21454 c 0.25725,1.65885 1.33548,3.07157 2.86505,3.75264 2.86154,1.27412 24.46933,10.96584 29.96565,13.27932 1.29437,0.54482 2.62721,0.8194 3.96279,0.81663 6e-4,0 6e-4,0 10e-4,0 7.57254,-0.0187 14.0166,-8.78355 16.37985,-12.44785 l -6.94349,3.1446 c -3.6594,1.65736 -7.81827,1.82098 -11.59622,0.45623 l -32.88358,-11.82129 c -2.08618,-0.72171 -2.11028,0.50479 -1.93964,1.60518 z"
   id="path313"
   inkscape:connector-curvature="0"
   style="fill:#d8a743;stroke-width:0.60107809" /><path
   class="st2"
   d="m 156.80047,201.28344 0.004,3.8068 c 0.005,2.05221 0.17709,2.66891 1.40852,4.30776 2.04461,2.72108 5.02812,6.66991 7.11273,9.4169 4.5816,6.03778 6.5515,8.53795 9.60426,12.82515 5.64574,7.93129 8.23802,12.96447 9.42906,15.35064 l 0.37404,-2.47567 c 1.17932,-7.80585 -1.20234,-15.7304 -6.48622,-21.58195 L 159.30155,201.6546 c -0.88359,-0.97855 -2.50108,-2.2746 -2.50108,-0.37116 z"
   id="path315"
   inkscape:connector-curvature="0"
   style="fill:#d8a743;stroke-width:0.60107809" /><path
   class="st2"
   d="m 172.81577,195.42538 c -2.58729,0.006 -1.55053,1.4726 -0.6972,2.18325 1.49248,1.24286 3.11846,2.59497 4.8034,3.99597 6.78708,5.64315 11.0403,9.16391 14.41019,12.08725 4.8153,4.17803 5.95933,5.17102 12.36394,5.22572 1.98577,0.017 6.9326,-0.0108 7.69649,-0.0198 L 180.70666,197.0725 c -1.84525,-1.30855 -3.55741,-1.65783 -6.33993,-1.65091 z"
   id="path317"
   inkscape:connector-curvature="0"
   style="fill:#d8a743;stroke-width:0.60107809" /><path
   class="st1"
   d="m 57.030887,163.76612 c 1.803235,0 2.005431,-0.8014 2.005431,-2.76676 0,-1.16525 3.022407,-1.16525 3.022407,-0.0609 0,0.54957 0,0.44841 0,1.12462 0,1.62789 -1.771804,2.3041 -3.274673,2.3041 -1.302356,0 -1.891353,-0.25558 -1.753165,-0.60108 z"
   id="path319"
   inkscape:connector-curvature="0"
   style="fill:#c1852a;stroke-width:0.60107809" /><path
   class="st3"
   d="m 52.338752,171.36568 c -0.889722,-1.66716 -1.777268,-3.33742 -2.662662,-5.01072 -1.364387,-2.59323 -1.162239,-2.48256 -7.201991,-2.07046 -1.071783,0.0724 -1.983023,0.12118 -2.385625,0.91731 -0.191864,-2.73851 1.346475,-3.43102 2.015661,-3.51439 0.805986,-0.14414 1.611731,-0.28876 2.417236,-0.43399 0.768598,-0.0964 0.445753,-0.67463 -0.124303,-1.83996 -0.300065,-0.55112 -0.599876,-1.10255 -0.89952,-1.65434 -0.464813,-0.77568 -0.456693,-1.12799 -7.423134,1.11338 -7.370834,2.37149 -10.941658,7.15139 -7.399926,13.26459 1.906019,3.29114 5.77642,6.2577 5.776541,6.2568 -0.0012,0.001 -1.697631,-3.55861 -1.15053,-5.64123 0.694732,-2.64132 3.247931,-2.91577 4.795822,-2.95713 2.978528,-0.0214 5.955842,-0.0514 8.931846,-0.0902 0.709506,-0.0421 1.065405,0.18735 1.422271,0.78036 0.218552,0.40886 0.437224,0.81748 0.65595,1.22597 0.265743,0.44064 0.223727,1.03829 -0.609487,1.01498 -2.830056,-0.0523 -4.806527,-0.0909 -7.638266,-0.15953 -3.305509,-0.0799 -5.28894,0.45148 -4.73896,2.59948 0.152013,0.43766 0.304212,0.87511 0.456459,1.3124 0.208394,-1.24321 2.784014,-1.17198 5.556186,-1.04347 3.18367,0.14389 5.512186,0.25503 8.694354,0.37753 2.073719,-0.0195 2.517621,-2.66776 1.512078,-4.44737 z"
   id="path321"
   inkscape:connector-curvature="0"
   style="fill:#a09e9f;stroke-width:0.60107809" /><path
   class="st4"
   d="m 40.800156,160.18899 c 0.734872,-0.25419 0.401821,-0.41914 -0.110905,-1.18828 -0.400318,-0.60047 -2.005791,-0.17424 -3.491115,0.346 -4.136139,1.44865 -6.871765,2.90031 -8.034497,5.24085 -0.929321,1.87585 -1.740536,5.60715 2.556205,9.96937 -0.0018,0.002 -1.757246,-2.19034 -0.08505,-5.75071 1.062646,-2.25716 4.352166,-3.43215 5.365163,-3.76106 0.436263,-0.1412 0.289954,-0.63024 0.357816,-1.10069 0.154297,-1.07131 0.538813,-2.85812 2.536616,-3.48853 0.003,-0.001 0.902699,-0.26562 0.905764,-0.26695 z"
   id="path323"
   inkscape:connector-curvature="0"
   style="fill:#c3c6c4;stroke-width:0.60107809" /><path
   class="st2"
   d="m 108.22272,141.07542 c -0.77894,-2.72618 -4.90882,-3.20571 -9.316712,-2.10377 -14.756341,3.68912 -44.637802,13.03829 -48.587125,14.42587 -3.706662,1.30237 -3.681603,2.80507 -2.279102,4.40795 0.851247,0.97279 0.628427,-0.33089 5.034029,-0.85153 8.264824,-0.97676 17.581534,-1.65297 17.581534,-1.65297 0,0 -0.901497,-0.97694 -1.953384,-2.10396 -0.792942,-1.00056 -3.406129,-1.32737 -4.808624,-1.42756 13.023378,-1.77817 23.391849,-3.88177 38.819484,-5.58486 3.34596,-0.36937 6.31132,-2.3041 5.5099,-5.10917 z"
   id="path325"
   inkscape:connector-curvature="0"
   style="fill:#d8a743;stroke-width:0.60107809" /><path
   class="st2"
   d="m 74.161733,170.42793 c -1.43514,-2.11075 -3.05546,-2.75016 -5.259433,-2.75016 -1.101957,0 -1.152027,-0.15502 -0.450809,1.1974 0.290375,0.5599 0.915676,2.10377 0.05013,2.10377 -1.152086,0 -4.952342,-0.20021 -7.713996,-0.20021 -2.003573,0 -3.205729,0.15027 -2.804997,1.5027 0.0024,0.009 0.446968,1.04359 0.450809,1.05188 0.901617,1.95351 2.805117,1.90324 4.207673,2.10359 l 13.991174,0.8343 c 0.684261,0 0.352953,-0.71967 0.03919,-1.32779 -0.856776,-1.66036 -1.515131,-3.04836 -2.509741,-4.51548 z"
   id="path327"
   inkscape:connector-curvature="0"
   style="fill:#d8a743;stroke-width:0.60107809" /><path
   class="st2"
   d="m 99.206547,86.327261 4.594993,-1.368715 c 1.59786,-0.47594 3.30978,-0.396598 4.85673,0.225218 l 12.6379,5.501313 -1.19013,5.981682 c -0.38637,1.628074 -1.51058,2.982556 -3.03965,3.662121 l -1.3302,0.57452 1.1034,-6.633139 -9.76288,-5.472395 c -2.22809,-1.139404 -4.61839,-1.928679 -7.086838,-2.340057 z"
   id="path329"
   inkscape:connector-curvature="0"
   style="fill:#d8a743;stroke-width:0.60107809" /><path
   class="st2"
   d="m 120.20677,108.28794 4.69142,-0.98895 c 1.63132,-0.34394 3.33112,-0.12503 4.82209,0.62104 l 12.14652,6.51484 -1.42949,5.01521 c -0.518,1.59112 -1.68789,2.52633 -3.26733,3.07878 l -1.44781,0.38884 1.1195,-5.64503 -8.99279,-5.8798 c -2.12758,-1.31751 -4.44546,-2.2993 -6.87205,-2.91084 z"
   id="path331"
   inkscape:connector-curvature="0"
   style="fill:#d8a743;stroke-width:0.60107809" /><path
   class="st2"
   d="m 145.7262,129.06829 -3.16677,0.311 c 0,0 1.66762,0.12545 3.50235,2.62948 l 3.6604,5.69846 -4.53778,5.54393 h 1.44023 c 1.66505,0.16553 3.31206,-0.29711 4.45297,-1.5211 l 3.99278,-4.61033 -4.39214,-6.38555 c -0.41137,-0.59808 -1.15599,-1.05952 -2.03482,-1.36624 -0.93222,-0.32538 -1.93457,-0.39611 -2.91722,-0.29965 z"
   id="path333"
   inkscape:connector-curvature="0"
   style="fill:#d8a743;stroke-width:0.60107809" /><path
   class="st2"
   d="m 104.91679,162.96472 c -3.70666,-4.10736 -0.92741,-7.9471 -1.35243,-7.66375 -10.368594,6.9124 -7.363204,10.91959 -5.787652,12.85705 1.082121,1.33061 25.895042,27.82271 30.019212,32.56263 0.74824,0.86003 1.41357,1.27127 2.03358,1.25751 0.36358,-0.008 0.55646,-0.0666 0.87047,-0.48525 0.95831,-1.2777 0.77907,-3.10805 0.52372,-4.82575 -0.49215,-3.31146 -2.15475,-6.84201 -4.21728,-9.35878 z"
   id="path335"
   inkscape:connector-curvature="0"
   style="fill:#d8a743;stroke-width:0.60107809" />
</svg>