

<svg width="730" height="658" viewBox="0 0 728 658" xmlns="http://www.w3.org/2000/svg" xmlns:xlink="http://www.w3.org/1999/xlink">

<use transform="matrix(-1,0,0,1,728,0)" xlink:href="#a"/>


<g id="a">

<path d="m7 70c4-1 15 4 18 5-9-9-13-25-12-37 5 0 12 5 12 5 12 8 20 13 61 28-1-1-2-4-3-6 3-2 11-1 11-1 60 7 141 46 181 93 4 4 4 14 0 17-6 6-9 19-3 18l-49 82 45 122h-2c-17-2-24-11-32-23-6-8-11-14-22-11-3 1-4-9-3-13-1 1-4 2-7 2-2-1-2-14-1-21-2 1-6 3-7 3-2 1-4-6-3-18-2 2-4 4-7 6-2 1-6-17-5-24-2 3-5 5-8 7-2 1-8-10-9-23-2 2-6 5-10 7-2 1-6-12-6-22-3 2-8 5-15 6-2 0-2-21 0-26-22 11-44-7-48-12 2-3 5-5 9-7-16 0-34-10-39-21 2-3 6-5 14-6-12-3-23-11-31-25 0-1 7-4 11-4-16-6-21-19-21-25 4-2 7-2 11-2-13-6-19-18-23-33 0-2 11-2 13-1-13-10-19-26-20-40" fill="#3f2b0f"/>

<path d="m126 581c-2-2-3-2-5-2 1-1 2-2 2-4 1-1 1-3 0-5 0-1-1-2-2-3 0-1-1-1-2-2h-4c-1 0-3 0-5 1-1 0-2 0-3 1-1 0-2 1-2 1l2 7 3-1s-1-4 0-4l1-1h4l3 3c1 4 0 6-4 7l-3 1 2 4 3-1c2-1 3-1 5 0 1 0 2 2 2 4 1 2 1 3 0 4 0 2-1 3-3 3l-2 1c-1 0-2-3-2-3h-3l2 7c1 0 1 0 2-1h4c4-2 6-3 7-6 2-2 2-4 1-7-1-2-2-3-3-4m43-5c-1 2-2 3-4 3l-2 1-4-12 2-1h5c1 1 2 2 3 5v4m-14-21 2-1h3c1 1 2 2 3 4v4c-1 1-2 2-3 2l-2 1zm16 10c-1-1-3-1-5-1 1-2 2-3 2-4 1-2 0-3 0-4-1-3-2-5-4-6s-5-1-8 1c-2 0-10 3-10 3l1 3h3l8 24-2 2 1 2s8-2 9-3c4-1 7-2 8-5 1-2 1-4 0-7 0-2-1-4-3-5m-34 14-2-13h1l7 11zm15 4-16-26-6 3 2 30-2 1 1 3 10-3-1-3h-3v-5l8-2 2 4-2 1 1 3 10-3-1-3h-3m73-24-8 2v-5c0-1-1-2-1-4l-5-16 6-2zm5-2-9-27-18 5 1 3h2l5 16c0 1 0 3 1 4v3c0 1 0 1-1 2l-2 1 3 7 3-1c0-1 1-3 0-4l14-5c0 1 2 3 3 3l3-1-2-7zm17-34-1-2-7 2-1 24-6-17c0-1 2-2 2-2l-1-3-9 3 1 3h2l9 28 5-2 2-23 6 17-2 2 1 2 9-3-1-2s-2 0-2-1l-8-24 1-2m-41 42s-1 0-1-1l-4-5c0-1-1-2-1-2l-2-2h-3v-1c1 0 2-1 2-2v-9c0-1 0-2 1-2 0-1 1-1 2-2l-1-2h-3c-2 1-3 2-4 3v13c-1 0-1 1-2 1l-3-9c0-1 1-2 1-2l-1-3-9 3 1 3h2l4 10h-3s-1-1-2-3l-3-4-3-3c-1-1-3-1-4 0h-1l-1 1h-1l1 3c1-1 2-1 2 0 1 0 1 0 2 1l3 4c1 2 2 3 3 3 0 1 1 1 2 1v1l-2 2v11c1 0 0 1 0 2 0 0-1 1-2 1l1 3h1c0-1 1-1 2-1 2-1 3-1 3-3 1-1 1-2 1-4l-1-6c0-2 0-3 1-4 0-1 0-1 1-1h1l3 11-1 1 1 3 9-3-1-3h-2l-4-11h1c0-1 1-1 2 0 1 0 1 1 2 2l3 6c1 1 2 2 4 3 1 1 2 1 4 0 1 0 1 0 2-1h1l-1-3c-1 1-2 1-3 0m160-82-1 169h-140c-13 0-20-11-20-20v-42l-70 23c-30 10-63 5-75-28-1-3-18-55-18-55-6-19 2-30 15-37 5-2 19-11 16-19-2-6 0-6 3-4 8 4 20 13 14 27 4-1 8 1 11 3 2 1 6 4 9 5 2 1 3 2 2 4-4 7-5 17-10 20 10 7 9 17 9 24l136-46c14-4 26-1 31 11l18 42s4 8 4 16c0 5-2 11-7 15h47l-118-317c-1-5-1-7 0-11 9-33 31-59 59-77l65-36v124c-.2734-11-33-10-31-5l39 214zm-42 16-70-225c-2-4-11-6-10-2zm16-7-45-219c-1-6-22-8-21-3z" fill="#3a363b"/>

<path d="m205 326c7-23 14-26 12-20 0 3-1 5-5 14 3-4 6-4 10-4 3-1 4 0 1 3-4 7-6 14-11 21-1 3-5 7-9 7-1-6-1-13 2-21zm-3-46c1-3 3-5 3 0 0 4-3 12-2 10 3-6 11-9 10-6-3 10-3 20-8 34-2 4-5 9-11 12-1-3-2-8 0-18 2-11 4-19 8-32zm-9-22c3-7 2 10-2 19 4-6 13-8 12-5-5 10-7 18-10 30-2 6-4 11-10 15-2-8-3-17-2-22 2-12 5-22 12-37zm-17-10c2-4 2 7 0 14 3-4 18-12 15-6-4 8-6 14-10 27-3 9-6 13-11 17-11-16 0-37 6-52zm-24 35c-8-18 2-33 7-41 2-2 1 5-1 12 4-8 19-17 17-11-6 12-8 14-11 26-2 8-6 11-12 14m5-62c9-6 1 5-5 11 7-4 8-6 8 0-1 4-1 5-3 10-4 6-6 9-9 14-2 3-5 9-16 12-2-16 0-21 6-28 5-5 10-12 19-19zm-49-25c3-1-1 4-12 8 7-1 16 1 26 3 13 2 9 4 6 6-10 5-15 7-25 9-19 5-38-4-47-16 0-1 4-3 9-3 7 0 20-1 43-7zm29 16c4-3-2 8-8 11 5-2 10-1 13-1 8 1 8 2 5 5s-8 9-13 13c-12 9-30 8-48-6 3-4 7-4 10-5 14-4 23-8 41-17zm-51-63c4 0-3 4-11 4 9 1 10 2 22 9 7 4 8 6 2 7-12 1-24 2-35 2-18 0-31-9-36-24 1-1 7 0 7 0 11 2 27 3 51 2zm-1-25c5 0-2 3-11 3 8 1 21 13 22 13 5 4 6 7 3 7-21 0-30-1-41-2-26-1-36-14-42-33 3-1 5-1 9 1 18 5 30 7 60 11zm178 74c-4 4-9 9-13 14-3 3-5-5-5-13-1-9 1-19 7-29 3-6 2-9-2-14-38-38-80-67-153-84-3-1 3 2 7 4 27 8 48 16 67 26 5 2 6 3 8 8 1 4 4 9 5 11 2 2 0 2-2 0-13-5-31-11-49-16-21-6-39-17-46-38 1-1 2-1 4-1 60 8 141 47 181 93 0 0 1 1 1 3 0 8 0 8-2 10-6 7-8 15-7 24 0 0 0 1-1 2zm-56-47c-5-2-15-6-18-17 4-1 11 2 14 4 17 9 34 20 42 28 4 3 3 6 1 4-9-6-21-12-39-19zm37 26c-8-4-19-10-35-13-11-3-16-7-18-13 1-1 7-1 13 1 20 7 35 16 41 21 2 3 1 5-1 4zm-1 6c-6-2-17-6-31-8-12-1-17-6-19-9 2-1 7-2 17 0 16 4 27 9 33 13 3 2 2 4 0 4zm-1 6c-8-1-16-2-23-2-11 1-18-2-23-6 2-2 4-4 14-3 15 1 28 5 32 8 3 2 2 3 0 3zm-1 8c-4 0-11 1-18 3-7 1-16 1-20-4 1-1 7-5 16-6 10-1 17 0 21 1 5 2 3 6 1 6zm-9 13c-6 4-11 3-20 2 3-5 5-8 12-10 8-3 19-4 19-1-1 3 0 4-2 5s-6 3-9 4zm12 6c0 1-2 3-5 6-3 5-6 6-15 5 2-7 4-10 8-13 7-6 10-6 10-4 1 4 2 3 2 6zm2-58c5 5 5 8 0 5-10-8-24-16-40-27-15-10-22-16-25-30 25 14 52 36 65 52zm-64-17c13 4 17 9 7 8-1 0-35-4-61-4-10 0-31-3-42-17 3-1 5-1 8-1 7 0 12 1 22 1 31 1 58 7 70 11 3 1 8 5-4 2zm0-13c5 3 7 9 2 8-20-6-35-8-60-11-16-2-35-12-39-27 0-2 6 0 6 0 9 4 24 4 71 19 29 9 35 16 30 14-6-1-8-2-10-3zm33 150c-2 2-5 3-8 5-1-14 3-20 7-25 5-9 12-17 18-24 2-3-1 5-5 11-4 5-8 11-12 17-1 2 11-13 7-3-5 14-1 14-7 19zm-28-99c5 1 6 2 8 4s0 2-3 2c-6 2-18 5-38 13-17 7-28 10-47 3 9-5 19-10 28-13 23-8 40-12 58-13 9 1 6 3-6 4zm6 13c17-3 18-2 8 3-7 3-19 8-27 13-17 10-23 13-36 11 4-9 7-13 16-18 17-9 36-12 45-14 7-1-5 5-6 5zm2 12c8-3 9-3 13-2 6 2 3 3 3 3-9 5-20 12-37 31-2 3-7 6-12 7-2-12 2-24 15-33 7-5 23-12 24-12 3 0 2 2-6 6zm10 13c3-2 5-4 12-2 6 1 5 2 2 4-16 14-19 20-27 28-2 2-7 6-11 8-3-13 0-21 7-29 6-7 17-15 24-19 1-1 1 0-1 4-1 2-6 6-6 6zm14 13c-1 0 2-1 8 0 3 0 3 1 1 5-6 6-14 16-19 25-3 4-7 7-12 8-1-12 0-19 7-29 5-7 13-14 21-20 1-1-1 1-2 4-1 4-2 4-4 7zm-92-62c33-5 49-5 63-4 4 0 2 1-4 2 6 1 6 2 8 4s2 3-2 3c-17 0-35 4-51 9-19 5-38 3-49-7 11-3 24-6 35-7zm-41-15c3-1 4-1 7-2 10 0 17-1 27-2 30-2 54 0 66 2 4 1 5 4-5 2 12 4 18 9 10 8-13-1-32-1-63 3-15 2-34-4-42-11zm147 154c0 1 0 3-3 4-3 2-10 3-12 4 0-6 2-14 8-20 2-2 3-1 4 2 2 7-8 11-8 13 9-5 10-5 11-3zm-12-20c-1 2 4-2 5-1 1 4-2 6-3 8-4 4-8 6-11 7 0-8 4-17 8-23 2-3 5 2 3 6zm17 43c-6-3-13-3-17-1 1-5 5-11 9-14 2-3 5-4 6 0 2 4 2 6-1 6s-6 1-8 3c1-1 12-2 14 3 1 3 1 5-3 3zm-160-233s5 1 6 2c0 2-3 3-13 2 13 3 19 10 26 17 5 4 2 4-6 4-24-3-37-6-49-9-22-6-31-26-33-40 4 0 7 2 10 4 13 7 30 12 59 20zm12 76c3-1-2 4-10 6 9-1 16 2 22 5 13 5 16 7 10 8-8 2-19 5-28 6-18 2-36-8-44-22 0-1 6-2 8-2 9 2 25 1 42-1zm132 159c10-4 23 6 28 21l8 21c2 6-9-4-14-12-8-11-14-18-24-11-1 1-3 2-2 2 11-7 18 0 25 10 4 5 7 12 13 16 3 2 4 1 5 6 2 6 1 5-2 4-25-7-22-36-47-31-5-4 5-24 10-26zm-131-253s4 4-11 0c14 5 19 11 23 15 9 8 5 7-19 1-37-9-43-11-53-18-11-7-16-26-16-36 3 0 7 3 7 3 11 9 21 15 62 30 5 2 6 4 7 5z" fill="#956828"/>

<path d="m220 353c19-7 22 24 36 33 4 2 3 2-1 0-16-5-21-33-38-30-3 1 1-2 3-3zm-1-27c-7 12-8 17-15 20 0-6 5-16 7-19 3-7 5-8 8-9 4-1 4 0 0 8zm-24 2c0-11 6-31 10-36 7-10 5-4 3 9-2 10-4 22-13 27zm-11-13c-1-8 4-28 7-35 3-5 11-10 8-3-2 7-5 17-7 25-2 4-5 10-8 13m-4-33c-2 8-6 13-10 16-1-8 0-20 6-32 3-6 14-11 12-6-3 5-6 15-8 22zm-11-31c-2 4-4 10-7 19-2 7-6 9-10 12-1-10 3-19 7-26 4-8 15-16 10-5zm44 105c-2-4 5-21 10-23 7-3 19 7 26 23 4 11 5 17-2 7-2-3-3-4-5-7-6-8-16-18-29 0zm-59-113c-4 6-5 8-7 13-2 3-5 8-14 10 0-9 13-27 19-32 5-4 6 2 2 9m-39-34c11 2 10 6-12 11-18 4-36-3-46-14 2-1 4 0 7 0 10 3 16 3 27 1 8-2 11-2 24 2zm24 15c8 0 5 3 1 7-3 4-4 4-8 7-10 8-27 8-43-4-1-2 4-2 7-2 12 2 17-1 29-6 3-1 10-2 14-2zm-43-39c12 5 11 7 3 8-5 1-11 2-15 3-16 2-34-7-42-20h3c7 2 9 6 31 5 7 0 15 1 20 4zm-9-24c8 5 8 6 2 7-8 1-18 1-25 1-17 0-29-8-34-21 12 6 24 9 37 8 7-1 13 0 20 5zm-29-18c-24-1-34-13-40-30 2 0 4 1 6 3 11 7 12 9 44 13 6 0 14 3 18 6 6 7 7 9-1 9-10 0-24-1-27-1zm30-24c-20-3-35-5-45-8-20-5-30-23-32-37 2 1 5 4 8 7 14 14 37 18 51 22 14 3 27 17 18 16zm137 208c3-2 7-2 11-1 3 1 4 3 2 3-4-2-8-3-13-2zm4-17c-2 2-8 3-10 4 2-2 8-4 11-5 1-1 3 0-1 1zm-44-125c-11 3-22 7-32 11-16 7-26 10-43 5 4-3 8 0 22-6 13-5 29-11 40-13 10-3 23 0 13 3m-11 21c-9 5-18 13-32 13 2-3 16-15 39-23 11-4 24-4 15-1-7 3-16 7-22 11zm-1 28c-2 2-6 6-10 7 0-12 10-23 26-32 9-5 24-8 14-2-9 6-19 14-30 27zm28 0c-6 6-12 14-19 18-1-13 9-23 19-29 11-6 20-8 13-1-4 3-10 8-13 12zm6 25c-2 3-6 6-9 7 0-12 9-22 15-27 10-7 17-10 10-2-4 6-11 15-16 22zm-22-87c-14 1-32 4-44 8-18 5-35 4-47-4 0-1 1-1 5-1 4 1 14 1 25-1 14-3 35-6 45-7 12 0 25 4 16 5m23 109c1-13 14-27 11-20-1 3-1 5-2 10-1 4-4 7-9 10zm-119-127c0-1 6-1 8 0 4 0 10 1 26 0 23-2 38-3 51 0 11 1 19 5 6 5-12 0-29 1-52 4-13 1-29-3-39-9m90-21c-20-6-30-7-55-9-16-2-32-12-38-25 2 0 5 2 5 2 9 5 12 6 25 9 10 2 33 6 51 13 16 6 21 13 12 10m5 14c-55-8-70 4-96-19h4c7 2 12 4 29 5 25 1 42 3 52 6 17 4 19 9 11 8m18 0c-5-2-9-5-11-11 10 4 33 17 45 26 3 1 5 4 3 3-12-7-26-12-37-18zm6 15c-8-2-13-5-16-10 20 5 51 21 48 22-8-4-18-9-32-12zm3 12c-8-1-14-4-16-7 16 1 48 13 45 14-7-2-17-5-29-7zm-14 7c9 0 31 1 40 5 2 1 3 2 2 2-6-1-14-1-20-2-8 0-15 0-22-5m8 16c6-2 24-4 32-2 2 0 3 1 2 1-12 1-26 7-34 1zm9 14c5-3 20-7 24-7s3 1 2 1c-11 6-11 9-26 6zm28 6c0 1-3 4-4 5-2 3-5 5-13 4 6-6 16-13 17-12zm-36-82c-13-9-20-14-23-24 16 11 47 32 60 47 4 4 4 4 2 3-13-10-26-18-39-26zm43 75c-1 1-3-11-3-18 1-8 3-15 8-23s-2-13-8-19c-37-37-79-65-155-81-2-1 6 7 15 10 27 10 46 17 59 23 3 2 6 3 8 8 2 3 5 5 7 7 2 1 3 4 0 3-3-2-7-4-11-5-10-4-23-8-36-11-20-6-37-16-45-36-1-1 3-1 4-1 59 8 140 47 179 93 3 3 2 10 0 10-8 0-9 0-12 5-4 8-4 15-3 26 0 4-2 5-7 9zm-29 77c-3 5-2 4-1 4 2-1 3 3-6 8 1-6 2-10 6-17 2-3 2 2 1 5zm11 28c3-2 3 4 0 6-4 2-6 4-8 6 2-6 5-9 8-12zm-5-18c2-3 2 4 1 6-4 4-7 8-8 10 1-6 3-11 7-16zm-128-204c6 6-3 3-14 0-36-9-41-10-52-18-9-6-14-19-15-32 0 0 2 1 3 2 8 8 7 18 53 33 10 3 20 10 25 15z" fill="#c28e3b"/>

<path d="m250 381c3 3 1 4-3-1-6-6-13-21-22-24 12 0 18 18 25 25zm-36-27c-1-2 2-6 7-10 4-4 0-9 2-10 6-3 13 4 21 16 4 7 6 15-1 5-6-7-16-18-29-1zm-3-15c-2 3-3 5-7 6 2-5 4-8 12-21 3-4 7-7 3-1-4 8-6 13-8 16zm2-24c-4 7-7 16-10 25 0 1 1-5 1-6 3-10 5-14 9-23 2-3 3-3 0 4zm-18 12c2-8 4-7 10-31 2-6 5-10 4-4-3 13-5 28.44-14 35zm6-37c1-5 3-4 1 2-4 13-7 23-8 32-1-11 4.093-25.14 7-34m-3-12c-2 6-5 16-7 23-1 4-4 9-6 12-1 1 0-4 2-10 1-4 3-11 6-20 2-6 7-10 5-5zm-7-3c-5 12-9 25-8 35 0 1-1-2-1-4 0-11 4-24 9-34 2-5 2-3 0 3zm-12 7c-2 7-5 11-8 14 0-11 4-18 8-28 3-7 7-9 6-6-2 6-5 14-6 20zm-4-20c-5 12-8 22-7 32 0 0-1-1-1-3-1-9 2-21 7-32 2-5 3-3 1 3zm-8-9s-3 8-6 17c-2 6-5 8-8 10 0-4 3-8 5-14 2-4 2-5 5-10 2-4 7-9 4-3zm-11 3c-5 10-5 15-5 21 0 1-1-1-1-2 0-7 1-13 6-23 1-3 2 0 0 4zm-22 9c0-2 2-4 7-11 2-2 3-6 8-13 4-5 9-7 4 1-4 7-4 8-7 13-2 3-5 8-12 10zm43-70c-12 4-29 13-32 17-1 1-3 3 1-2s15-11 27-15c10-3 15-5 4 0zm18 27c-6 5-11 12-14 21-1-5 6-15 10-19 8-8 12-10 4-2zm11 15c6-8 8-7 4-3-5 6-9 14-12 23 0-7 4-15 8-20m18 8c-4 7-14 20-17 33 0-12 9-23 15-31 3-5 6-8 2-2zm-42-36c-9 6-15 12-18 19-2 4-1 0 0-3 3-6 7-10 13-15 10-6 13-6 5-1zm-30 21c-11 11-15 18-19 27 1-9 9-19 16-26 5-5 7-4 3-1zm-26-7c-15 7-23 9-31 9h-2c7-2 15-3 37-14 6-3 0 3-4 5zm-32-20c-16 4-24 4-31 2h-2c7 0 20 0 34-4 7-2 5 1-1 2zm22 12c-3 2-5 2-14 4-16 4-33-3-43-12 1-1 3 0 5 1 10 4 17 7 32 3 9-2 17-1 20 0 5 1 4 3 0 4m-26 19c2-1 6 0 6 0 11 3 20 5 32-4 6-5 18-6 13-1-3 3-7 6-9 8-10 8-26 8-42-3m-19-81c-23 1-28-1-35-3-3-1-7-2-2-1 8 1 14 3 39 2 6 0 2 2-2 2zm7 25c-14 1-23 1-30-1 0 0-4-2-2-2 8 2 19 2 33 1 6-1 5 1-1 2zm23 14c-5 1-16 3-17 3-16 2-32-6-41-18 4 0 9 4 12 6 8 4 14 5 30 4 8-1 21 3 16 5zm-14-25c-2 0-19 1-23 1-16 0-27-7-33-19 1 1 3 2 4 3 7 6 15 8 21 9h16c13 0 24 6 15 6zm-20-41c-19-2-31-4-42-11-4-2-2-2 1 0 12 5 21 6 40 9 12 1 12 3 1 2zm-47-12 4 4c3 3 6 8 13 11 5 3 10 5 32 6 17 1 24 8 16 8-10 0-27-1-27-1-23-1-32-12-38-28zm23-4c-18-4-28-21-31-34 2 2 6 8 6 8 12 16 26 19 50 25 11 2 22 9 15 8-17-2-31-4-40-7zm27-11c-26-5-40-10-49-18-10-8-6-5-2-2 11 7 22 11 47 17 13 3 16 6 4 3zm-21-16c-20-7-28-17-31-38 2 0 3 3 4 6 3 6 8 11 11 14 11 9 26 14 39 18 16 5 28 13 19 11-18-5-35-9-42-11zm34-5c-29-9-47-18-56-27s-6-6-2-3c11 10 25 16 54 26 7 3 11 6 4 4zm90 127c-8 5-16 13-29 13 1-2 14-11 38-21 9-3 18-5 13-3-7 3-15 7-22 11zm30 2c-9 5-19 13-31 27-2 2-5 4-8 6 2-8 12-21 28-30 8-5 16-7 11-3m10 14c-4 3-10 9-13 12-5 6-10 13-17 18 0-8 13-22 23-28 7-4 12-7 7-2m-6 37c-2 3-5 6-8 7 1-6 9-17 16-24s13-10 8-4c-5 5-12 14-16 21zm-108-82c7 2 16 3 27 1 14-3 29-6 40-7s22 0 11 2c-12 1-26 4-36 7-17 5-34 4-45-3zm110 103c1-3 2-4 5-9 2-6 5-10 4-6-2 6-1 10-9 15zm-56-84c-15 7-25 10-40 5h4c5 0 12 0 20-3 11-5 21-9 32-12 12-3 21-3 10 1-9 2-18 6-26 9zm23-37c-12 0-28 1-48 4-12 1-27-2-36-8 0-1 7 1 7 1 6 2 10 3 24 2 16-1 31-2 42-2 13 0 20 3 11 3m0-13c-23-3-38-2-51-2-13-1-23-4-35-14h2c6 3 16 7 33 8 27 2 37 2 44 4 12 2 18 5 7 4m-52-22c-15-2-30-11-36-23 2 1 3 2 3 2 7 5 10 8 27 13 14 4 43 7 58 13 4 2 6 5 3 4-20-6-30-7-55-9m146 35c1 2-1 3-3 0-35-39-101-75-167-89 57 10 132 46 170 89zm0 14c-6 6-9 14-7 24 0 1-1 2-2 1-2-14 3-23 9-25m-144-79c18 7 27 10 39 15 8 4 15 11 11 9-16-6-30-11-42-14-19-6-36-15-43-30-4-7-2-5 0-2 5 5 10 12 35 22z" fill="#d6ab50"/>

<path d="m107 554c2-16-3-21-16-25-3 0-2-3-1-3 7 2 11 1 13-5 1-3 2-7 4-12-5-2-8-5-11-7-6-2-10-1-13 4 0 1-3-1-1-3 8-10 10-19-5-30 5 11-12 21-18 24-12 6-18 15-13 31l15 44c-3-19 11-29 24-30 9 0 18 5 22 12m-3 6c-3-8-10-13-20-13-12 0-22 9-22 21 0 3 0 5 1 10 10 41 55 36 71 31l141-46c9-3 17 0 20 5l-20-48c-5-10-14-13-26-9zm105 70c2-6 6-10 13-14l60-23c22-9 15-34-5-27l-58 19c-7 3-10 6-10 13zm154 18c-5-7-13-23-20-45-2-4-5-7-11-7h-31c-9 0-14 1-22 3l-57 21c-18 7-14 28 3 28zm-28-405c1 0 3 8 3 12s0 8-1 8-2-2-2-5zm2 284-80-256c-2-7 14 2 16 8l57 194c8 28 4 31 9 50 5 18 7 31-2 4m1-61-39-193c-1-9 12 2 15 13l20 105c6 30 0 27 3 48 7 36 5 47 1 27m-8-205c-16-2-29 1-31 7 0 2-1 1-4 0-8-6-36-7-38 0-1 1-3 1-4 0-12-5-22-5-25-1-1 2-3 2-2-2 7-28 25-51 46-68 13-10 24-12 9 9-8 11-23 33-25 55 7-27 27-54 44-67 19-15 18-9 14-1-5 10-21 50-16 69 0-20 10-50 19-68 12-22 18-15 17-5-1 18-4 33-1 68 3 2 1 5-3 4zm-104 12c-2-7 13 0 16 7l96 267c9 25 11 55 3 36z" fill="#857c80"/>

<path d="m50 509c4 11 8 20 11 31 1 3 9-2 7-6-2-10-6-21-11-31-1-3-8 3-7 6m10-7c4 10 8 20 11 31 1 3 3 2 3-1-3-13-7-23-12-31-2-3-3-2-2 1m44 8c-6-3-13-12-19-3 3-2 7-1 14 5-2 9-4 12-8 12 5 1 8 1 10-4 1-3 2-7 3-10m-24-8c7-9 8-16 0-24-1 4-2 7-4 9 4-3 8 0 5 9-1 1-1 3-1 6m18 31c3 3 3 7 0 5-12-8-35-4-40 15-1 4 1 8 2 3 6-18 34-21 44-8 3 3 4-11-6-15m116 75v-12c0-5-2-4-2 1v12c0 5 2 3 2-1m-149-39c-2 19 11 33 24 38 13 6 32 4 46-1l138-45c4-1 6-2 10-2l-15-36c-3-7-10-13-20-9l-145 48c-2 1-4 2-6-1-9-12-30-9-32 8m206-47 15 36c1 4 4 4 3 0l-15-35c-3-7-5-6-3-1m21 53c0 6-6 9-11 11l-62 24c-8 3-10 15-6 9 2-2 4-4 7-5l63-24c5-2 11-6 11-15 0-3-1-3-2 0m45 31c10 21 14 29 22 39h-134c-12 0-19-13 0-20l59-24c7-3 13-3 22-3h20c5 0 8 2 11 8m-32-350s-2 0-2-6c2-19 6-31 11-44 9-23 18-31 15-12-1 14-3 34-3 54 0 4-1 6-4 6 1 0 6 1 6 1 5 1 5 5 0 4-12-1-22 1-26 4-3 2-2-6 3-7zm-42 1s-1-2 0-4c7-24 19-42 37-58 6-6 14-10 10-2-11 21-14 39-18 58-1 5-4 7-4 7l6 2c4 1 3 6-1 5-13-5-31-4-35-1-3 2-2-5 1-6s4-1 4-1zm-33 3c2-1 2-2 3-5 6-19 22-40 35-52s18-12 12-4c-14 18-23 35-29 56-1 3-4 4-1 5 4 2 4 6-1 5-4-2-16-4-21 0-1 1-2-2 0-4 1-1 2-1 2-1zm27-47c-11 12-21 27-26 43-1 3-3 3-2 1 6-17 15-32 27-45 8-8 11-10 1 1" fill="#a9a7ad"/>

<path d="m241 352c-8-9-15-10-23-4l5-5c2-2 2-3 2-8 0-1 0-1 2 0 4 2 4 6 0 7 5 0 9 2 14 7 2 2 5 9 0 3zm-107-249c-19-6-36-15-43-30l-1-2c-2-4-1-3 1 0 7 12 18 20 42 28 18 7 24 9 31 12 3 1 6 4 1 2-11-4-22-7-31-10zm-97-30c9 6 28 12 44 17 9 3 9 3 3 2-16-4-29-7-35-9-18-6-26-16-30-34-1-4 0-3 1 0 4 11 7 18 17 24zm34 40c5 1 14 5 3 3-13-2-24-4-31-6-17-4-26-18-30-30-1-3-1-3 1 0 12 23 22 25 57 33zm-13 29c-22-1-31-10-37-25-1-3 0-1 1 0 7 13 17 20 35 22 0 0 9 0 17 1 9 1 12 2 3 2zm6 26c-14 0-24-6-30-15-2-3-1-2 1 0 14.13 11.5 24.84 12 40 12 8 0 12 2 8 2-6 1-16 1-19 1zm20 27c-15 1-30-5-39-16-2-2 0-1 2 1 9 7 20 14 43 12 14.33-1.359-1.468 2.849-6 3zm18 24c-15 4-31-2-41-11-2-1-1-2 1 0 14 8 28 13 50 7 6-1-1 2-10 4zm30 18c-10 8-25 8-40-2-2-1-1-1 2 0 17 7 28 7 42-4 10-7-.8724 4.352-4 6zm21 5c-4 7-4 8-7 13-2 3-4 7-11 10-1 0-1 0 0-1 8-7 11-14 17-23 3-4 2-1 1 1zm8 28c-1 5-4 7-7 9 0 0-1 1 0-1 5-6 5-10 12-24 1-3 2-3 1 0-2 4-3 7-6 16zm18 11c-2 7-4 12-7 14-1 1-1 1 0-1 3-8 4-13 10-27 2-5 3-5 2-2-2 5-4 12-5 16zm12 20c-1 4-3 8-6 11-1 1-1 1 0 0 4-9 5-16 11-33 1-3 3-4 1 1-2 6-4 15-6 21zm5 24c4-6 7-10 12-33-1.925 12.35-3.666 26.83-12 34-1 1-1 1 0-1m22-2c1-2 2-2 1 0-4 8-6 13-8 16-2 2-3 4-5 5s-1 1 0-1c4-5 5-8 12-20zm-17-116c-8 6-18 14-29 27-1 1-4 3-6 5-2 1-3 1-1-1 8-7 11-16 34-30 4-2 5-2 2-1m-28-2c-8 5-15 12-27 13-2 0-1 0 0-1 12-3 16-10 44-21 4-2 3-1 1 0-6 3-13 6-18 9zm46 83c-2 4-4 6-5 9 0-3 2-8 3-10 3-6 3-4 2 1zm6 16-5 6c2-4 3-7 5-11 1-2 2 2 0 5zm6 16c-4 2-6 4-7 5 1-3 4-5 7-8 1-1 1 2 0 3zm-20-43c-1 1-1 1 0-1s3-3 5-10c1-3 2-2 1 1-1 4-1 7-6 10zm-83-115c-11 1-24-2-33-6-3-2-2-2 0-1 24 9 30 2 77 2 4 0 7 1 2 1-12 0-27 1-46 4zm13 17c-16 4-31 4-42-1-3-2-2-2 1-1 18 6 31 1 55-3 5-1 12-2 17-3 4-1 8 0 3 1-12 2-25 4-34 7zm12 16c-14 6-23 9-37 6h1c10 1 17-1 27-5 8-3 21-8 33-11 5-1 4 0 0 1-8 3-17 6-24 9zm47 38c-5 6-10 12-16 17-2 1-2 1 0-1 5-7 7-12 27-27 3-2 3-2 1 0-4 3-9 8-12 11zm23 4c-5 5-12 14-16 21l-6 6c-1 1-2 1 0-1 4-5 6-11 21-26 2-2 3-2 1 0zm-99-114c-14-2-28-9-35-20-1-3 0-2 1-1 19 22 41 16 77 26 8 2 9 3 1 1-14-3-24-4-44-6zm1 20c-12-1-21-3-32-12 22 12 37 7 79 13 5 0 7 1 2 1-22-3-37-2-49-2zm117 74c-1 2-3 3-4 5-3 3-4 4-12 4 3-3 6 0 11-5 3-3 6-5 5-4m-13-58c-9-5-19-8-27-12-4-2-7-4-10-10 3 1 3 3 14 9 17 8 28 14 23 13m-4 8c-4-2-10-4-17-5-7-2-13-5-15-9 5 1 6 4 14 6 9 3 15 5 20 7 6 3 4 3-2 1m1 10c-4-2-9-3-15-3-6-1-12-3-15-7 5 1 6 3 14 5 4 0 8 1 17 4 7 2 5 2-1 1m6 10c-9-1-24 1-34-6 10 1 8 3 20 3 14 1 16 3 14 3m2 9c-7 1-21 6-28 1 6-2 6 2 16 0 12-2 18-2 12-1m4 10c-9 4-9 7-23 5 4-2 5-1 10-1 4 0 5-2 11-4 3-1 5-1 2 0m0-51c-11-8-22-14-32-21-11-7-19-13-22-22 5 4 4 7 21 18 20 14 37 27 33 25m34 14s1-3-4-3c-3 0-5 0-7 3-5 6-11 16-8 35 0 1-3 5-3 3-4-18 0-29 6-39 1-2 3-5-1-10-7-7-24-24-48-40-33-23-68-38-113-48 25 2 71 17 113 43 26 16 44 34 57 48 1 1 1 2 5 2 2 0 2-3 3-1s1.203 5.018 0 7z" fill="#fbca78"/>

<path d="m82 536c-10 1-17 5-20 12-2 3-1 4 0 2 5-7 12-11 22-11 5-1 3-3-2-3m4 27c4 2 9 3 17 1l142-48c9-3 15 2 18 8l9 23c1 4 0 5-3 6l-139 46c-33 11-58-4-58-28 0-7 5-11 14-8m195 27c1 0 2-1 1-1 0-1-1-1-2 0-1 0-2 1-2 1h3m-10 2-49 18c-3 1-3 4 1 2l49-18c6-3 7-5-1-2m-52 21c-1-1-2-1-2 0-1 0-1 1-1 1 0 1 1 1 2 0l1-1m125 26h-117c-7 0-8-8 1-12l55-23c6-3 7-3 15-3h21c6 0 8 0 11 5 8 17 13 26 15 30 2 2 1 3-1 3m-24-442c4-10 8-13 7-6-3 15-5 43-5 59 0 5-13 5-13 1 0-19 5-41 11-54zm-25 5c6-6 11-9 7-2-11 17-16 36-20 53-1 4-14 4-13-1 3-17 12-36 26-50zm-26 2c4-3 8-5 5-2-11 14-22 33-29 53-1 4-11 4-10 1 6-21 20-40 34-52zm-10 68c-1-4 10 7 13 15l53 184c4 14 11 50 6 32zm42 4c-1-6 9 7 11 19l17 92c5 31 6 56 0 22zm-72-1c-4-7 8 4 12 13l93 262c3 10 8 31 2 15zm91-21c4 0 5 4 0 4-6 0-11 1-14 2s-3-2 0-3c4-2 7-2 14-3zm-35 4c4 0 4 4 0 3-8-1-15-1-22 0-3 1-2-3 1-4 7-1 13-1 21 1zm-39 1c3 1 3 4-1 4-5-1-10-1-13-1-4 2-3-2 1-3s9-1 13 0z" fill="#c7cbcd"/>

<path d="m271 555-141 47c-33 10-64-6-62-36 1-3-2 1-2 4-1 31 31 47 65 36l144-48c4-1 1-5-4-3m-45 86c-5 0-9-1-11-4-1-2-1-2-1 0 1 7 6 8 12 8h121c3 0 1-4-2-4zm124 0c-2 0 0 4 2 4s0-4-2-4zm-30-438c2-9 5-13 4-6-2 14-5 34-6 52 0 3-4 4-4 0 0-17 3-35 6-46zm-2 52c2 0 3 2 0 2l-7 1c-5 1-3-1 0-2s4-1 7-1zm-24-50c3-5 6-5 3 0-7 12-13 30-17 46-1 4-5 4-4 0 2-17 10-33 18-46zm-17 52c3 0 3 3 0 3h-8c-5 0-5-2 0-3zm-20-37c7-10 10-10 7-6-8 11-14 23-19 38-2 5-7 5-5 0 5-11 10-23 17-32zm-25 60c-3-5 1-4 5 9l92 250c4 9 6 21 1 8zm30-3c-2-4 2 2 5 9l57 190c2 7 7 27 0 6zm41 5c-1-9 3 1 5 7l18 89c7 36 4 35 0 15zm-62-23c1 1 1 3-1 3-2-1-5-1-6 0-3 0-3-2 0-3z" fill="#fff"/>
</g>


<g transform="matrix(.1 0 0 .1 323.6 504.4)">

<path d="m-2022 742-1-1c25-25 31-57 22-85-12-38-42-58-79-57-39 5-70 16-101 37l21 62 26-8s-6-40-1-42c36-11 68-10 80 25 13 37 2 61-31 72l-30 10 12 36 34-12c39-12 63 9 73 40 8 54-15 69-55 83-6 2-22-34-22-34l-27 9 21 63c20-1 42-6 60-12 65-20 95-69 77-127-14-35-44-59-79-59zm445 2-24 8-39-117 24-8c40-13 63 11 74 42 12 37-3 64-35 75zm-107-245 19-6c32-9 53 10 62 36 9 30-1 57-28 66l-20 6zm115 91v-2c20-22 28-52 19-79-20-59-76-66-122-51-16 5-93 38-93 38l8 25s21 0 24 3l79 239c-1 5-17 17-17 17l8 25s81-22 97-27c64-20 96-68 78-125-14-38-44-62-81-63zm-295 156-12-137 72 117zm-3-218-64 21 22 300c-2 5-16 15-16 15l8 25 94-31-8-25s-20 0-24-3l-4-46 74-25 25 40c-1 4-17 16-17 16l8 25 94-31-8-25s-18 0-23-2zm884 12-81 27c6-32 1-65-7-94l-45-160 53-17zm52-17-91-275-176 58 8 24s22 1 22 3l45 158c9 31 13 62 7 93l-21 7 24 72 33-11c1-10 6-28 4-41l135-45c6 8 23 22 30 30l33-11-25-71zm165-360-73 24-13 231-58-171c0-2 18-16 18-16l-8-24-90 30 8 24s22 1 22 3l92 277 52-17 14-236 58 174c0 4-16 17-16 17l8 24 89-29-8-25s-22-1-23-3l-80-243c1-4 16-16 16-16zm-417 429-32-54c-14-24-34-38-61-40l-1-2c21-18 22-45 21-67l-2-49c0-18 9-30 24-35l-8-24c-11-1-22 2-31 5-34 13-40 43-39 72l2 49c2 22-2 42-22 49l-32-98c2-5 16-16 16-16l-8-24-90 29 8 25s18 1 22 3l33 98c-21 6-37-12-47-26l-28-41c-18-27-44-44-74-34-10 3-19 8-28 14l8 24c10-3 18-3 24 0 20 12 30 34 44 54 14 21 32 42 57 42v2c-22 17-27 43-25 69 2 27 11 58 2 82-3 7-10 12-20 15l8 24c11 0 23-2 32-5 34-13 41-43 38-72l-6-62c1-28 6-40 26-51l37 110c-2 5-16 16-16 16l8 25 90-30-8-25s-18 0-23-2l-36-111c22-7 41 9 51 25l32 54c18 29 44 44 74 34 10-3 20-8 28-14l-8-24c-18 5-29-2-40-14zm3946-46-73-24-91 275-64-21 79-240c2-4 23-4 23-4l9-25-94-31-8 25s14 11 17 16l-79 242-65-22 91-275-74-24-8 23s18 14 17 17l-80 244c-5 2-22 2-22 2l-8 25 327 107 8-24s-13-11-16-16l80-242c2-4 23-4 23-4zm137 45-93-31-9 25s15 11 18 16l-80 242c-5 3-23 3-23 3l-8 25 93 31 8-25s-15-12-17-16l80-242c4-3 23-4 23-4zm-975-320-228-75-8 24s18 14 17 17v1l-79 242c-6 2-23 3-23 3l-8 24 93 31 8-25s-15-11-17-16l79-241 80 26-79 241c-5 3-23 3-23 3l-8 25 93 30 8-24s-14-11-16-16l79-243c2-3 24-3 24-3zm359 306c-14 10-29 7-44 4l-24-8 52-158c25 7 46 15 57 37 5 23-1 46-7 66-7 23-18 43-34 59zm90-135c-15-29-44-43-71-52-17-6-100-28-100-28l-7 23s18 14 17 18l-80 242c-3 3-23 3-23 3l-9 25 93 30 8-24s-13-10-16-15l20-60c25 13 50 24 78 24 50-5 74-52 87-93 9-31 16-65 3-93zm-402-156-7 24s18 13 17 15c0 1-80 245-80 245-5 3-23 3-23 3l-8 25 182 59 22-65-25-8s-15 24-20 26l-74-24 36-109 63 21c2 7 1 29 1 29l23 8 29-89-23-8s-14 22-19 24l-63-20 32-96 74 24c2 5 0 34 0 34l25 8 21-66z" fill="#3a363b"/>
</g>

<path d="m390 193c3 10 2 27 2 38-4-9-7-28-2-38zm6 288c3 10-3 40-8 45 1-11-2-15-2-18 3-5 4-12 10-27zm-4-78c3 10 0 38-3 46-2-11-1-17 0-23 1-8 2-14 3-23z" fill="#857c80"/>

<path d="m390 238 5 5-2 22-6-1 3-26m-2 281c2 16-1 30-5 35-2-14 3-28 5-35zm-1-80c6 15 4 35-2 40-2-14 0-33 2-40z" fill="#3a363b"/>


<g id="sword">

<path d="m343 142c3 0 4-2 4-5l1-34c-4-2-5-7-6-11-1-6 2-9 7-9 1-4 2-7 2-13 0-1 0-3 2-5 0-11-2-21-9-28v-8c0-4 4-9 9-11 1-4 3-10 10-10 6 0 9 6 10 10 5 2 8 7 8 11v8c-7 7-9 17-9 28 2 2 2 4 2 5 0 5 1 9 3 13 5 0 8 3 7 9-1 4-3.002 8.888-7 11l1 34c0 3 1 5 4 5 19 3 39 11 55 25 3 3 4 7 2 11l-7 11c-2 3-3 3-4 2-9-8-19-16-34-20-3-1-5-2-5 2 0 9-1 14-2 22-3 11-2 22 3 39 3 7 3 15-3 30-5 13-3 22 0 35 3 10 6 21 0 39-5 12-3 20 0 32 2 9 4 19-1 33s-6 22-2 35c4 12 6 25 1 40-5 14-7 26-3 36 5 13 3 24 2 34-2.307 17.37-5 28-5 43-1 20-4 34-12 49-3 5-4 4-6 1-9-17-14-37-16-54-1-16 2-24 2-35s-2-21-5-30c-2-9-3-19 3-40 4-16-1-27-5-43-3-11-2-18 1-30 2-10 4-13-2-29-5-15-3-32 0-42 3-13 5-21 0-34-5-14-4-22 0-35 2-9 4-17-2-34-5-13-5-24-3-37 2-9 2-17 2-26 0-2 1-3-5-2-14 3-23 10-33 19-3 3-4 3-5 1-2-4-3-6-7-12-2-4-1-8 2-11 15-14 34-22 55-25z" fill="#3f2b0f"/>

<path d="m428 170c1 1-1 3-2 2-5-5-11-9-18-12-1 0 0-3 2-2 6 3 12 7 18 12m-23-14c1 0 0 3-1 2-2 0-1-3 1-2m-108 16c-2 1-5 2-4 1 17-17 41-24 63-25 3 0 2 3 0 3-7 0-15 1-23 3-14 3-27 9-36 18m133 5c-2 4-3 6-3 7v3c-18-22-40-27-62-18-4 1 6-7 21-7 13 0 23 4 34 14 2 2 4 4 8 3l2-2m-66 83c-4 16-5 24-1 36 5 19 3 27 1 38-4 14-5 24-2 34 5 15 4 23 1 39-3 13-3 22 1 36 4 11 4 23 0 39-3 11-6 25-1 41s3 24 1 38c-4 26 0 28 0 52v27c-4-13-9-39-9-58 0-16 0-17 1-27s0-21-3-29c-5-16-3-30 1-42 4-13 3-24-3-42-5-13-3-20 0-33 4-16 2-25-3-39-10-27 13-40 0-69-5-12-4-21 1-33 5-15 1-23-3-36-3-10-4-21-3-33 2-10 3-24 0-30 15 1 15 5 15 11 0 8-1 14-2 20-3 25 12 30 8 60" fill="#d6ab50"/>

<path d="m359 16c0-3 2-5 4-5s3 2 4 5c0 0 0 1-1 1h-7v-1m-11 71h29c2 0 3 1 3 4l-1 4c-1 3-2 5-5 4-3-2-20-2-23 0-2 1-4-1-4-4l-1-4c-1-3 0-4 2-4m4 16c0-4 21-4 21 0v37c0 1 0 2-1 1h-18c-1 1-2 0-2-1zm18-33c0 5 1 10 3 15h-21c2-5 3-10 3-15s15-5 15 0zm-22-35v-6c0-2 3-7 8-8 1-1 1-3 2-3h9c1 0 2 2 2 3 5 2 8 6 8 8v6c-7 7-9 21-9 29v1h-11v-1c0-10-2-23-9-29m14 135c-22-10-46-6-65 17l-7-12c-1-2-1-3 1-5 20-18 46-25 71-25s51 7 71 25c2 2 2 3 1 5l-7 12c-19-23-42-27-65-17m2 470c-6-13-13-31-14-54-1-15 1-24 1-34 0-11-1-21-3-25-5-15-4-26 1-44 4-12 2-26-3-40-5-13-4-19-1-33 4-15 3-25-2-39-5-13-3-23 0-33 4-10 5-22 0-36-5-15-4-23 1-35 4-12 2-22-3-34-4-12-4-22-2-35 1-11 1-20 1-30 5 0 10 1 15 3s5 3 5 6v3c0 8-1 14-2 20-3 25 11 31 6 60 0 0 1-3 1-4 3-11 2-18-2-32-6-20 1-25 1-44 0-1-1-2 0-3 0-4 1-5 4-6 5-2 11-3 16-3 0 9-1 17-3 26-2 10-4 20 3 35 5 12 3 21-1 33-5 13-5 23-1 35 4 13 5 23 0 39-4 11-4 23-1 32 4 10 5 21 1 33-5 14-7 23-3 38 4 11 6 23 1 37s-7 27-3 39c6 15 4 23 1 41-2 11-3 21-3 26v7c0 27-5 38-11 51" fill="#956828"/>

<path d="m367 22c-1 0-1-3 0-3 0 0 1 3 0 3zm-2-6v-4s2 4 0 4zm-5 0h3c1 0 1-4-1-4-2 1-2 1.996-2 4zm-11 13c0-3 5-7 9-7v-1c0-2 1-2 1-2h4c2 0 2 3 2 3 1 3 2 6 2 9-2 5-3 22-3 32-2 0-4 1-6 1 0-11-2-23-9-29zm27 0v6c-2 1-3 3-4 5-1 1-1-2 0-3s2-3 2-3v-5c0-1-2-4-5-5-1-1-2-2-1-2 3 0 8 4 8 7zm-7 41c0 4 1 9 2 12s-4 2-5 0v-11s-1-1-2-1c-2 0-2 1-2 1v9c0 2-1 4-3 4h-3c-2 0-2-1-1-2 1-4 2-12 2-12 0-4 12-4 12 0zm8 26c-1 2-2 0-1-2s3-1 1 2zm-1-8c4 0 2 4 0 4h-25c-2 0-2 1-2 2 1 2 0 4-1 0-2-5-2-6 1-6zm-4 50c0 2-4 1-4-3v-27c0-4 4-4 4-1zm-10 1h-6c-2 0-3-1-3-4v-27c0-6 11-6 11-2v31c0 1 0 2-2 2m6 9c21 1 44 7 61 23 4 3 2 6-2 2-8-7-17-12-27-16-10-3-18-6-29-7-3 0-5-2-3-2zm-6 22c-22-10-46-6-65 17l-7-12c-1-2 2-1 3-2 17-18 43-25 66-25 2 0 1-1 3-1s3 7 3 12c0 7-2 11-3 11m1 126c5 19 3 27 1 38-4 14-5 24-2 34 5 15 4 23 1 39-3 13-3 22 1 36 4 11 4 23 0 39-3 11-6 25-1 41s3 24 1 38c-4 26 0 28 0 52v27c-6-13-13-31-14-54-1-15 1-24 1-34 0-11-1-21-3-25-5-15-4-26 1-44 4-12 2-26-3-40-5-13-4-19-1-33 4-14 3-25-2-39-5-12-3-23 0-33 4-10 5-22 0-36-5-15-4-23 1-35 4-12 2-22-3-34-4-12-4-22-2-35 1-11 1-20 1-30 18 2 18 6 18 12 0 8-1 14-2 20-3 25 12 30 8 60-4 16-5 24-1 36zm19-102c-3 10-5 20 2 34 5 13 3 22-1 34-5 12-5 23-1 35s5 23 0 38c-4 12-4 24-1 33 4 10 5 21 1 33-5 14-7 23-3 38 4 11 6 23 1 37s-7 27-3 39c6 15 4 23 1 41-2 11-3 21-3 26v7c0 27-5 38-11 51 8-23 9-30 9-51v-7c0-5 0-15 2-26 3-18 5-27 0-42-4-12-1-24 3-39 4-13 2-25-1-37-4-14-2-23 2-37 4-13 3-22 0-33-3-10-3-21 0-33 5-15 5-26 1-38s-4-23 0-36c4-12 6-20 1-33-5-15-4-24-2-34 2-8 2-14 3-20 0-2 0-4 2-6 0 9-1 17-2 26zm-18 4c-2 12-2 16 2 30 2 10 2 20-1 28 3-11 2-18-2-32-6-20 1-25 1-44v-3c0-3 2-4 2-1 0 6-1 14-2 22z" fill="#c28e3b"/>

<path d="m362 14v-2c1 0 1 3 0 3 0 0-1 0 0-1m1 6c1 0 1 1 0 1h-4c-1 0-1-1 0-1zm1 3s2 7 1 7h-5c-1 0 0-7 1-7zm0 20c0 8 0 11-1 18 0-10-1-18 1-26 1-4 1-4 1-2 0 4-1 6-1 10zm-7-13c2 9 3 16 3 24 0 3 0 4-1 0-2-9-5-17-9-20v-5c0-2 5-6 8-6 0 1-1 4-1 7zm11 40h-1c-1 0-1-2-1-2h1c1 0 1 2 1 2zm-10 0s-1-1 1-2c0 0 3-1 5 0 1 2-4 2-6 2zm3 10c0 2-1 3-2 3s-1 0-1-1c0-4 1-7 1-10 0-2 2-2 2 0zm9 1c1 2-1 3-2 0s-1-11 0-10c1 4 1 7 2 10zm6 10c-2 0-2-3 0-3s1 3 0 3zm-7-3c4 0 3 3 0 3h-20c-1 0-2-3-1-3zm-10 20c0-3 4-3 4 0s-4 3-4 0zm-4 27c0 2-2 2-2 0v-27c0-1 2-2 2 0zm3-22c0-3 5-3 5 0v23c0 3-5 3-5 0zm13-4c0-2 1-3 1 0v25c0 4-1 2-1 0zm-33 44c-1 0-2-1-1-2 6-1 12-2 17-2 2 0 2 2 0 2-5 0-11 1-16 2zm-6-1c2 0 2 2 1 2s-2-2-1-2zm-34 28c1 1 1 1 2 0 14-14 32-20 51-17 5 1 7-1 9-12 1-3 3-3 3-1 0 7 0 20-1 20-22-11-46-6-65 17 0-2 1-2 0-4l-4-8c0-1 3 2 5 5zm66 460c-6-13-14-31-15-54-1-15 2-24 2-34 0-11-1-21-3-25-5-15-4-26 1-44 4-12 2-26-3-40-5-13-4-19-1-33 4-15 3-25-2-39-5-13-3-23 0-33 4-10 5-22 0-36-5-15-4-23 1-35 4-12 2-22-3-34-4-12-4-22-2-35 1-11 1-20 1-30 3 4 3 19 1 30-2 13-1 24 3 35 4 12 6 20 2 34-3 13-4 22 0 35 5 14 3 24 0 36-3 10-4 19-1 33 4 14 6 23 3 37-2 15-3 21 1 35 4 16 6 28 3 40-4 12-6 27-1 44 1 4 3 15 3 25s-2 14-2 30c0 23 8 46 12 58m-1-388c-1-10-4-26-12-26-5 0 0 8-1 12-4-10-7-22-5-34 0 3 1 5 3 4 3-2 5-1 6 2-1-10 2-13 2-10-3 25 12 30 8 60-1 15-2 26 0 36 4 16 5 23 1 38-3 15-4 23-1 33 4 16 4 24 0 41-2 12-2 20 2 35 9 30-10 49-1 79 5 18 3 25 1 39-2 13-3 20-2 27 0 7 2 12 2 24 0 8-1 16-2 28-1-10-1-19-1-27-1-36-6-21-6-12-1-8-2-20 0-39 0-3 1-4 3-1 1 2 2 2 3-7 2-13 4-15-1-31-4-12-5-11-8-11-2 0-1 4-1 6-2-6-3-17 0-26 2 6 3-3 6 5 2-18 10-33 4-53-4-10-6-13-10-13-3 0-2 7-2 9-3-9-2-19 1-28 1 8 3-4 6 5 2 4 1-3 3-10 4-15 4-21 1-34-2-8-4-10-9-10s-4 5-3 10c-5-10-5-22-1-31 0 5 6-5 8 4 1 3 3-1 4-5 1-6 4-14 4-23 0-4-1-9-2-15-2-7-4-11-10-11s-3 5-2 10c-6-11-6-22-2-31 1 7 5-2 8 6 1 1 2 1 3-2 1-6 3-15 3-23z" fill="#fbca78"/>
</g>
</svg>
