<?xml version="1.0" encoding="UTF-8"?>
<!DOCTYPE svg PUBLIC "-//W3C//DTD SVG 1.1//EN" "http://www.w3.org/Graphics/SVG/1.1/DTD/svg11.dtd">
<!-- Creator: CorelDRAW X7 -->
<svg xmlns="http://www.w3.org/2000/svg" xml:space="preserve" width="210mm" height="297mm" version="1.1" style="shape-rendering:geometricPrecision; text-rendering:geometricPrecision; image-rendering:optimizeQuality; fill-rule:evenodd; clip-rule:evenodd"
viewBox="0 0 21000 29700"
 xmlns:xlink="http://www.w3.org/1999/xlink">
 <defs>
  <style type="text/css">
   <![CDATA[
    .str0 {stroke:black;stroke-width:25;stroke-linejoin:bevel}
    .fil0 {fill:none}
   ]]>
  </style>
 </defs>
 <g id="_0">
  <metadata id="CorelCorpID_0Corel-Layer"/>
  <line class="fil0 str0" x1="10650" y1="14900" x2="10650" y2= "14800" />
  <line class="fil0 str0" x1="10650" y1="14800" x2="10550" y2= "14800" />
  <line class="fil0 str0" x1="10550" y1="14800" x2="10550" y2= "14700" />
  <line class="fil0 str0" x1="10550" y1="14700" x2="10450" y2= "14700" />
  <line class="fil0 str0" x1="10450" y1="14700" x2="10450" y2= "14800" />
  <line class="fil0 str0" x1="10450" y1="14800" x2="10350" y2= "14800" />
  <line class="fil0 str0" x1="10350" y1="14800" x2="10350" y2= "14900" />
  <line class="fil0 str0" x1="10350" y1="14900" x2="10450" y2= "14900" />
  <line class="fil0 str0" x1="10450" y1="14900" x2="10450" y2= "15000" />
  <line class="fil0 str0" x1="10450" y1="15000" x2="10550" y2= "15000" />
  <line class="fil0 str0" x1="10550" y1="15000" x2="10550" y2= "14900" />
  <line class="fil0 str0" x1="10550" y1="14900" x2="10650" y2= "14900" />
  <line class="fil0 str0" x1="11050" y1="15400" x2="11050" y2= "15900" />
  <line class="fil0 str0" x1="11050" y1="15900" x2="11150" y2= "15900" />
  <line class="fil0 str0" x1="11150" y1="15900" x2="11150" y2= "15500" />
  <line class="fil0 str0" x1="11150" y1="15500" x2="11550" y2= "15500" />
  <line class="fil0 str0" x1="11550" y1="15500" x2="11550" y2= "15400" />
  <line class="fil0 str0" x1="11550" y1="15400" x2="11050" y2= "15400" />
  <line class="fil0 str0" x1="11650" y1="15300" x2="11750" y2= "15300" />
  <line class="fil0 str0" x1="11750" y1="15300" x2="11750" y2= "14900" />
  <line class="fil0 str0" x1="11750" y1="14900" x2="11650" y2= "14900" />
  <line class="fil0 str0" x1="11650" y1="14900" x2="11650" y2= "15300" />
  <line class="fil0 str0" x1="10850" y1="15800" x2="10950" y2= "15800" />
  <line class="fil0 str0" x1="10950" y1="15800" x2="10950" y2= "15400" />
  <line class="fil0 str0" x1="10950" y1="15400" x2="10850" y2= "15400" />
  <line class="fil0 str0" x1="10850" y1="15400" x2="10850" y2= "15300" />
  <line class="fil0 str0" x1="10850" y1="15300" x2="10750" y2= "15300" />
  <line class="fil0 str0" x1="10750" y1="15300" x2="10750" y2= "15200" />
  <line class="fil0 str0" x1="10750" y1="15200" x2="10650" y2= "15200" />
  <line class="fil0 str0" x1="10650" y1="15200" x2="10650" y2= "15100" />
  <line class="fil0 str0" x1="10650" y1="15100" x2="10550" y2= "15100" />
  <line class="fil0 str0" x1="10550" y1="15100" x2="10550" y2= "15500" />
  <line class="fil0 str0" x1="10550" y1="15500" x2="10650" y2= "15500" />
  <line class="fil0 str0" x1="10650" y1="15500" x2="10650" y2= "15600" />
  <line class="fil0 str0" x1="10650" y1="15600" x2="10750" y2= "15600" />
  <line class="fil0 str0" x1="10750" y1="15600" x2="10750" y2= "15700" />
  <line class="fil0 str0" x1="10750" y1="15700" x2="10850" y2= "15700" />
  <line class="fil0 str0" x1="10850" y1="15700" x2="10850" y2= "15800" />
  <line class="fil0 str0" x1="10950" y1="15200" x2="11050" y2= "15200" />
  <line class="fil0 str0" x1="11050" y1="15200" x2="11050" y2= "15300" />
  <line class="fil0 str0" x1="11050" y1="15300" x2="11350" y2= "15300" />
  <line class="fil0 str0" x1="11350" y1="15300" x2="11350" y2= "15200" />
  <line class="fil0 str0" x1="11350" y1="15200" x2="11250" y2= "15200" />
  <line class="fil0 str0" x1="11250" y1="15200" x2="11250" y2= "15100" />
  <line class="fil0 str0" x1="11250" y1="15100" x2="11150" y2= "15100" />
  <line class="fil0 str0" x1="11150" y1="15100" x2="11150" y2= "15000" />
  <line class="fil0 str0" x1="11150" y1="15000" x2="11050" y2= "15000" />
  <line class="fil0 str0" x1="11050" y1="15000" x2="11050" y2= "14900" />
  <line class="fil0 str0" x1="11050" y1="14900" x2="10750" y2= "14900" />
  <line class="fil0 str0" x1="10750" y1="14900" x2="10750" y2= "15000" />
  <line class="fil0 str0" x1="10750" y1="15000" x2="10850" y2= "15000" />
  <line class="fil0 str0" x1="10850" y1="15000" x2="10850" y2= "15100" />
  <line class="fil0 str0" x1="10850" y1="15100" x2="10950" y2= "15100" />
  <line class="fil0 str0" x1="10950" y1="15100" x2="10950" y2= "15200" />
  <line class="fil0 str0" x1="11650" y1="15900" x2="11750" y2= "15900" />
  <line class="fil0 str0" x1="11750" y1="15900" x2="11750" y2= "15800" />
  <line class="fil0 str0" x1="11750" y1="15800" x2="11550" y2= "15800" />
  <line class="fil0 str0" x1="11550" y1="15800" x2="11550" y2= "15900" />
  <line class="fil0 str0" x1="11550" y1="15900" x2="11450" y2= "15900" />
  <line class="fil0 str0" x1="11450" y1="15900" x2="11450" y2= "16100" />
  <line class="fil0 str0" x1="11450" y1="16100" x2="11550" y2= "16100" />
  <line class="fil0 str0" x1="11550" y1="16100" x2="11550" y2= "16000" />
  <line class="fil0 str0" x1="11550" y1="16000" x2="11650" y2= "16000" />
  <line class="fil0 str0" x1="11650" y1="16000" x2="11650" y2= "15900" />
  <line class="fil0 str0" x1="11250" y1="16100" x2="11350" y2= "16100" />
  <line class="fil0 str0" x1="11350" y1="16100" x2="11350" y2= "15700" />
  <line class="fil0 str0" x1="11350" y1="15700" x2="11750" y2= "15700" />
  <line class="fil0 str0" x1="11750" y1="15700" x2="11750" y2= "15600" />
  <line class="fil0 str0" x1="11750" y1="15600" x2="11250" y2= "15600" />
  <line class="fil0 str0" x1="11250" y1="15600" x2="11250" y2= "16100" />
  <line class="fil0 str0" x1="9350" y1="14800" x2="9350" y2= "14400" />
  <line class="fil0 str0" x1="9350" y1="14400" x2="9250" y2= "14400" />
  <line class="fil0 str0" x1="9250" y1="14400" x2="9250" y2= "14800" />
  <line class="fil0 str0" x1="9250" y1="14800" x2="9350" y2= "14800" />
  <line class="fil0 str0" x1="10750" y1="14000" x2="10750" y2= "14100" />
  <line class="fil0 str0" x1="10750" y1="14100" x2="10650" y2= "14100" />
  <line class="fil0 str0" x1="10650" y1="14100" x2="10650" y2= "14200" />
  <line class="fil0 str0" x1="10650" y1="14200" x2="10550" y2= "14200" />
  <line class="fil0 str0" x1="10550" y1="14200" x2="10550" y2= "14600" />
  <line class="fil0 str0" x1="10550" y1="14600" x2="10650" y2= "14600" />
  <line class="fil0 str0" x1="10650" y1="14600" x2="10650" y2= "14500" />
  <line class="fil0 str0" x1="10650" y1="14500" x2="10750" y2= "14500" />
  <line class="fil0 str0" x1="10750" y1="14500" x2="10750" y2= "14400" />
  <line class="fil0 str0" x1="10750" y1="14400" x2="10850" y2= "14400" />
  <line class="fil0 str0" x1="10850" y1="14400" x2="10850" y2= "14300" />
  <line class="fil0 str0" x1="10850" y1="14300" x2="10950" y2= "14300" />
  <line class="fil0 str0" x1="10950" y1="14300" x2="10950" y2= "13900" />
  <line class="fil0 str0" x1="10950" y1="13900" x2="10850" y2= "13900" />
  <line class="fil0 str0" x1="10850" y1="13900" x2="10850" y2= "14000" />
  <line class="fil0 str0" x1="10850" y1="14000" x2="10750" y2= "14000" />
  <line class="fil0 str0" x1="9350" y1="15300" x2="9350" y2= "14900" />
  <line class="fil0 str0" x1="9350" y1="14900" x2="9250" y2= "14900" />
  <line class="fil0 str0" x1="9250" y1="14900" x2="9250" y2= "15300" />
  <line class="fil0 str0" x1="9250" y1="15300" x2="9350" y2= "15300" />
  <line class="fil0 str0" x1="10250" y1="15000" x2="10250" y2= "14900" />
  <line class="fil0 str0" x1="10250" y1="14900" x2="9950" y2= "14900" />
  <line class="fil0 str0" x1="9950" y1="14900" x2="9950" y2= "15000" />
  <line class="fil0 str0" x1="9950" y1="15000" x2="9850" y2= "15000" />
  <line class="fil0 str0" x1="9850" y1="15000" x2="9850" y2= "15100" />
  <line class="fil0 str0" x1="9850" y1="15100" x2="9750" y2= "15100" />
  <line class="fil0 str0" x1="9750" y1="15100" x2="9750" y2= "15200" />
  <line class="fil0 str0" x1="9750" y1="15200" x2="9650" y2= "15200" />
  <line class="fil0 str0" x1="9650" y1="15200" x2="9650" y2= "15300" />
  <line class="fil0 str0" x1="9650" y1="15300" x2="9950" y2= "15300" />
  <line class="fil0 str0" x1="9950" y1="15300" x2="9950" y2= "15200" />
  <line class="fil0 str0" x1="9950" y1="15200" x2="10050" y2= "15200" />
  <line class="fil0 str0" x1="10050" y1="15200" x2="10050" y2= "15100" />
  <line class="fil0 str0" x1="10050" y1="15100" x2="10150" y2= "15100" />
  <line class="fil0 str0" x1="10150" y1="15100" x2="10150" y2= "15000" />
  <line class="fil0 str0" x1="10150" y1="15000" x2="10250" y2= "15000" />
  <line class="fil0 str0" x1="9650" y1="15700" x2="9650" y2= "16100" />
  <line class="fil0 str0" x1="9650" y1="16100" x2="9750" y2= "16100" />
  <line class="fil0 str0" x1="9750" y1="16100" x2="9750" y2= "15600" />
  <line class="fil0 str0" x1="9750" y1="15600" x2="9250" y2= "15600" />
  <line class="fil0 str0" x1="9250" y1="15600" x2="9250" y2= "15700" />
  <line class="fil0 str0" x1="9250" y1="15700" x2="9650" y2= "15700" />
  <line class="fil0 str0" x1="9850" y1="15900" x2="9950" y2= "15900" />
  <line class="fil0 str0" x1="9950" y1="15900" x2="9950" y2= "15400" />
  <line class="fil0 str0" x1="9950" y1="15400" x2="9450" y2= "15400" />
  <line class="fil0 str0" x1="9450" y1="15400" x2="9450" y2= "15500" />
  <line class="fil0 str0" x1="9450" y1="15500" x2="9850" y2= "15500" />
  <line class="fil0 str0" x1="9850" y1="15500" x2="9850" y2= "15900" />
  <line class="fil0 str0" x1="10950" y1="16000" x2="10550" y2= "16000" />
  <line class="fil0 str0" x1="10550" y1="16000" x2="10550" y2= "16100" />
  <line class="fil0 str0" x1="10550" y1="16100" x2="10950" y2= "16100" />
  <line class="fil0 str0" x1="10950" y1="16100" x2="10950" y2= "16000" />
  <line class="fil0 str0" x1="10450" y1="16100" x2="10450" y2= "16000" />
  <line class="fil0 str0" x1="10450" y1="16000" x2="10050" y2= "16000" />
  <line class="fil0 str0" x1="10050" y1="16000" x2="10050" y2= "16100" />
  <line class="fil0 str0" x1="10050" y1="16100" x2="10450" y2= "16100" />
  <line class="fil0 str0" x1="10250" y1="15700" x2="10250" y2= "15600" />
  <line class="fil0 str0" x1="10250" y1="15600" x2="10350" y2= "15600" />
  <line class="fil0 str0" x1="10350" y1="15600" x2="10350" y2= "15500" />
  <line class="fil0 str0" x1="10350" y1="15500" x2="10450" y2= "15500" />
  <line class="fil0 str0" x1="10450" y1="15500" x2="10450" y2= "15100" />
  <line class="fil0 str0" x1="10450" y1="15100" x2="10350" y2= "15100" />
  <line class="fil0 str0" x1="10350" y1="15100" x2="10350" y2= "15200" />
  <line class="fil0 str0" x1="10350" y1="15200" x2="10250" y2= "15200" />
  <line class="fil0 str0" x1="10250" y1="15200" x2="10250" y2= "15300" />
  <line class="fil0 str0" x1="10250" y1="15300" x2="10150" y2= "15300" />
  <line class="fil0 str0" x1="10150" y1="15300" x2="10150" y2= "15400" />
  <line class="fil0 str0" x1="10150" y1="15400" x2="10050" y2= "15400" />
  <line class="fil0 str0" x1="10050" y1="15400" x2="10050" y2= "15800" />
  <line class="fil0 str0" x1="10050" y1="15800" x2="10150" y2= "15800" />
  <line class="fil0 str0" x1="10150" y1="15800" x2="10150" y2= "15700" />
  <line class="fil0 str0" x1="10150" y1="15700" x2="10250" y2= "15700" />
  <line class="fil0 str0" x1="9550" y1="16100" x2="9550" y2= "15900" />
  <line class="fil0 str0" x1="9550" y1="15900" x2="9450" y2= "15900" />
  <line class="fil0 str0" x1="9450" y1="15900" x2="9450" y2= "15800" />
  <line class="fil0 str0" x1="9450" y1="15800" x2="9250" y2= "15800" />
  <line class="fil0 str0" x1="9250" y1="15800" x2="9250" y2= "15900" />
  <line class="fil0 str0" x1="9250" y1="15900" x2="9350" y2= "15900" />
  <line class="fil0 str0" x1="9350" y1="15900" x2="9350" y2= "16000" />
  <line class="fil0 str0" x1="9350" y1="16000" x2="9450" y2= "16000" />
  <line class="fil0 str0" x1="9450" y1="16000" x2="9450" y2= "16100" />
  <line class="fil0 str0" x1="9250" y1="14000" x2="9250" y2= "14100" />
  <line class="fil0 str0" x1="9250" y1="14100" x2="9750" y2= "14100" />
  <line class="fil0 str0" x1="9750" y1="14100" x2="9750" y2= "13600" />
  <line class="fil0 str0" x1="9750" y1="13600" x2="9650" y2= "13600" />
  <line class="fil0 str0" x1="9650" y1="13600" x2="9650" y2= "14000" />
  <line class="fil0 str0" x1="9650" y1="14000" x2="9250" y2= "14000" />
  <line class="fil0 str0" x1="10250" y1="14000" x2="10150" y2= "14000" />
  <line class="fil0 str0" x1="10150" y1="14000" x2="10150" y2= "13900" />
  <line class="fil0 str0" x1="10150" y1="13900" x2="10050" y2= "13900" />
  <line class="fil0 str0" x1="10050" y1="13900" x2="10050" y2= "14300" />
  <line class="fil0 str0" x1="10050" y1="14300" x2="10150" y2= "14300" />
  <line class="fil0 str0" x1="10150" y1="14300" x2="10150" y2= "14400" />
  <line class="fil0 str0" x1="10150" y1="14400" x2="10250" y2= "14400" />
  <line class="fil0 str0" x1="10250" y1="14400" x2="10250" y2= "14500" />
  <line class="fil0 str0" x1="10250" y1="14500" x2="10350" y2= "14500" />
  <line class="fil0 str0" x1="10350" y1="14500" x2="10350" y2= "14600" />
  <line class="fil0 str0" x1="10350" y1="14600" x2="10450" y2= "14600" />
  <line class="fil0 str0" x1="10450" y1="14600" x2="10450" y2= "14200" />
  <line class="fil0 str0" x1="10450" y1="14200" x2="10350" y2= "14200" />
  <line class="fil0 str0" x1="10350" y1="14200" x2="10350" y2= "14100" />
  <line class="fil0 str0" x1="10350" y1="14100" x2="10250" y2= "14100" />
  <line class="fil0 str0" x1="10250" y1="14100" x2="10250" y2= "14000" />
  <line class="fil0 str0" x1="9550" y1="13600" x2="9450" y2= "13600" />
  <line class="fil0 str0" x1="9450" y1="13600" x2="9450" y2= "13700" />
  <line class="fil0 str0" x1="9450" y1="13700" x2="9350" y2= "13700" />
  <line class="fil0 str0" x1="9350" y1="13700" x2="9350" y2= "13800" />
  <line class="fil0 str0" x1="9350" y1="13800" x2="9250" y2= "13800" />
  <line class="fil0 str0" x1="9250" y1="13800" x2="9250" y2= "13900" />
  <line class="fil0 str0" x1="9250" y1="13900" x2="9450" y2= "13900" />
  <line class="fil0 str0" x1="9450" y1="13900" x2="9450" y2= "13800" />
  <line class="fil0 str0" x1="9450" y1="13800" x2="9550" y2= "13800" />
  <line class="fil0 str0" x1="9550" y1="13800" x2="9550" y2= "13600" />
  <line class="fil0 str0" x1="9750" y1="14900" x2="9750" y2= "14800" />
  <line class="fil0 str0" x1="9750" y1="14800" x2="9650" y2= "14800" />
  <line class="fil0 str0" x1="9650" y1="14800" x2="9650" y2= "14700" />
  <line class="fil0 str0" x1="9650" y1="14700" x2="9550" y2= "14700" />
  <line class="fil0 str0" x1="9550" y1="14700" x2="9550" y2= "14800" />
  <line class="fil0 str0" x1="9550" y1="14800" x2="9450" y2= "14800" />
  <line class="fil0 str0" x1="9450" y1="14800" x2="9450" y2= "14900" />
  <line class="fil0 str0" x1="9450" y1="14900" x2="9550" y2= "14900" />
  <line class="fil0 str0" x1="9550" y1="14900" x2="9550" y2= "15000" />
  <line class="fil0 str0" x1="9550" y1="15000" x2="9650" y2= "15000" />
  <line class="fil0 str0" x1="9650" y1="15000" x2="9650" y2= "14900" />
  <line class="fil0 str0" x1="9650" y1="14900" x2="9750" y2= "14900" />
  <line class="fil0 str0" x1="9850" y1="14200" x2="9450" y2= "14200" />
  <line class="fil0 str0" x1="9450" y1="14200" x2="9450" y2= "14300" />
  <line class="fil0 str0" x1="9450" y1="14300" x2="9950" y2= "14300" />
  <line class="fil0 str0" x1="9950" y1="14300" x2="9950" y2= "13800" />
  <line class="fil0 str0" x1="9950" y1="13800" x2="9850" y2= "13800" />
  <line class="fil0 str0" x1="9850" y1="13800" x2="9850" y2= "14200" />
  <line class="fil0 str0" x1="9850" y1="14700" x2="9950" y2= "14700" />
  <line class="fil0 str0" x1="9950" y1="14700" x2="9950" y2= "14800" />
  <line class="fil0 str0" x1="9950" y1="14800" x2="10250" y2= "14800" />
  <line class="fil0 str0" x1="10250" y1="14800" x2="10250" y2= "14700" />
  <line class="fil0 str0" x1="10250" y1="14700" x2="10150" y2= "14700" />
  <line class="fil0 str0" x1="10150" y1="14700" x2="10150" y2= "14600" />
  <line class="fil0 str0" x1="10150" y1="14600" x2="10050" y2= "14600" />
  <line class="fil0 str0" x1="10050" y1="14600" x2="10050" y2= "14500" />
  <line class="fil0 str0" x1="10050" y1="14500" x2="9950" y2= "14500" />
  <line class="fil0 str0" x1="9950" y1="14500" x2="9950" y2= "14400" />
  <line class="fil0 str0" x1="9950" y1="14400" x2="9650" y2= "14400" />
  <line class="fil0 str0" x1="9650" y1="14400" x2="9650" y2= "14500" />
  <line class="fil0 str0" x1="9650" y1="14500" x2="9750" y2= "14500" />
  <line class="fil0 str0" x1="9750" y1="14500" x2="9750" y2= "14600" />
  <line class="fil0 str0" x1="9750" y1="14600" x2="9850" y2= "14600" />
  <line class="fil0 str0" x1="9850" y1="14600" x2="9850" y2= "14700" />
  <line class="fil0 str0" x1="10450" y1="15800" x2="10450" y2= "15900" />
  <line class="fil0 str0" x1="10450" y1="15900" x2="10550" y2= "15900" />
  <line class="fil0 str0" x1="10550" y1="15900" x2="10550" y2= "15800" />
  <line class="fil0 str0" x1="10550" y1="15800" x2="10650" y2= "15800" />
  <line class="fil0 str0" x1="10650" y1="15800" x2="10650" y2= "15700" />
  <line class="fil0 str0" x1="10650" y1="15700" x2="10550" y2= "15700" />
  <line class="fil0 str0" x1="10550" y1="15700" x2="10550" y2= "15600" />
  <line class="fil0 str0" x1="10550" y1="15600" x2="10450" y2= "15600" />
  <line class="fil0 str0" x1="10450" y1="15600" x2="10450" y2= "15700" />
  <line class="fil0 str0" x1="10450" y1="15700" x2="10350" y2= "15700" />
  <line class="fil0 str0" x1="10350" y1="15700" x2="10350" y2= "15800" />
  <line class="fil0 str0" x1="10350" y1="15800" x2="10450" y2= "15800" />
  <line class="fil0 str0" x1="10650" y1="14000" x2="10650" y2= "13900" />
  <line class="fil0 str0" x1="10650" y1="13900" x2="10550" y2= "13900" />
  <line class="fil0 str0" x1="10550" y1="13900" x2="10550" y2= "13800" />
  <line class="fil0 str0" x1="10550" y1="13800" x2="10450" y2= "13800" />
  <line class="fil0 str0" x1="10450" y1="13800" x2="10450" y2= "13900" />
  <line class="fil0 str0" x1="10450" y1="13900" x2="10350" y2= "13900" />
  <line class="fil0 str0" x1="10350" y1="13900" x2="10350" y2= "14000" />
  <line class="fil0 str0" x1="10350" y1="14000" x2="10450" y2= "14000" />
  <line class="fil0 str0" x1="10450" y1="14000" x2="10450" y2= "14100" />
  <line class="fil0 str0" x1="10450" y1="14100" x2="10550" y2= "14100" />
  <line class="fil0 str0" x1="10550" y1="14100" x2="10550" y2= "14000" />
  <line class="fil0 str0" x1="10550" y1="14000" x2="10650" y2= "14000" />
  <line class="fil0 str0" x1="11350" y1="14000" x2="11350" y2= "13600" />
  <line class="fil0 str0" x1="11350" y1="13600" x2="11250" y2= "13600" />
  <line class="fil0 str0" x1="11250" y1="13600" x2="11250" y2= "14100" />
  <line class="fil0 str0" x1="11250" y1="14100" x2="11750" y2= "14100" />
  <line class="fil0 str0" x1="11750" y1="14100" x2="11750" y2= "14000" />
  <line class="fil0 str0" x1="11750" y1="14000" x2="11350" y2= "14000" />
  <line class="fil0 str0" x1="11450" y1="13600" x2="11450" y2= "13800" />
  <line class="fil0 str0" x1="11450" y1="13800" x2="11550" y2= "13800" />
  <line class="fil0 str0" x1="11550" y1="13800" x2="11550" y2= "13900" />
  <line class="fil0 str0" x1="11550" y1="13900" x2="11750" y2= "13900" />
  <line class="fil0 str0" x1="11750" y1="13900" x2="11750" y2= "13800" />
  <line class="fil0 str0" x1="11750" y1="13800" x2="11650" y2= "13800" />
  <line class="fil0 str0" x1="11650" y1="13800" x2="11650" y2= "13700" />
  <line class="fil0 str0" x1="11650" y1="13700" x2="11550" y2= "13700" />
  <line class="fil0 str0" x1="11550" y1="13700" x2="11550" y2= "13600" />
  <line class="fil0 str0" x1="11550" y1="13600" x2="11450" y2= "13600" />
  <line class="fil0 str0" x1="11150" y1="13800" x2="11050" y2= "13800" />
  <line class="fil0 str0" x1="11050" y1="13800" x2="11050" y2= "14300" />
  <line class="fil0 str0" x1="11050" y1="14300" x2="11550" y2= "14300" />
  <line class="fil0 str0" x1="11550" y1="14300" x2="11550" y2= "14200" />
  <line class="fil0 str0" x1="11550" y1="14200" x2="11150" y2= "14200" />
  <line class="fil0 str0" x1="11150" y1="14200" x2="11150" y2= "13800" />
  <line class="fil0 str0" x1="10750" y1="14700" x2="10750" y2= "14800" />
  <line class="fil0 str0" x1="10750" y1="14800" x2="11050" y2= "14800" />
  <line class="fil0 str0" x1="11050" y1="14800" x2="11050" y2= "14700" />
  <line class="fil0 str0" x1="11050" y1="14700" x2="11150" y2= "14700" />
  <line class="fil0 str0" x1="11150" y1="14700" x2="11150" y2= "14600" />
  <line class="fil0 str0" x1="11150" y1="14600" x2="11250" y2= "14600" />
  <line class="fil0 str0" x1="11250" y1="14600" x2="11250" y2= "14500" />
  <line class="fil0 str0" x1="11250" y1="14500" x2="11350" y2= "14500" />
  <line class="fil0 str0" x1="11350" y1="14500" x2="11350" y2= "14400" />
  <line class="fil0 str0" x1="11350" y1="14400" x2="11050" y2= "14400" />
  <line class="fil0 str0" x1="11050" y1="14400" x2="11050" y2= "14500" />
  <line class="fil0 str0" x1="11050" y1="14500" x2="10950" y2= "14500" />
  <line class="fil0 str0" x1="10950" y1="14500" x2="10950" y2= "14600" />
  <line class="fil0 str0" x1="10950" y1="14600" x2="10850" y2= "14600" />
  <line class="fil0 str0" x1="10850" y1="14600" x2="10850" y2= "14700" />
  <line class="fil0 str0" x1="10850" y1="14700" x2="10750" y2= "14700" />
  <line class="fil0 str0" x1="10450" y1="13700" x2="10450" y2= "13600" />
  <line class="fil0 str0" x1="10450" y1="13600" x2="10050" y2= "13600" />
  <line class="fil0 str0" x1="10050" y1="13600" x2="10050" y2= "13700" />
  <line class="fil0 str0" x1="10050" y1="13700" x2="10450" y2= "13700" />
  <line class="fil0 str0" x1="11550" y1="14900" x2="11550" y2= "14800" />
  <line class="fil0 str0" x1="11550" y1="14800" x2="11450" y2= "14800" />
  <line class="fil0 str0" x1="11450" y1="14800" x2="11450" y2= "14700" />
  <line class="fil0 str0" x1="11450" y1="14700" x2="11350" y2= "14700" />
  <line class="fil0 str0" x1="11350" y1="14700" x2="11350" y2= "14800" />
  <line class="fil0 str0" x1="11350" y1="14800" x2="11250" y2= "14800" />
  <line class="fil0 str0" x1="11250" y1="14800" x2="11250" y2= "14900" />
  <line class="fil0 str0" x1="11250" y1="14900" x2="11350" y2= "14900" />
  <line class="fil0 str0" x1="11350" y1="14900" x2="11350" y2= "15000" />
  <line class="fil0 str0" x1="11350" y1="15000" x2="11450" y2= "15000" />
  <line class="fil0 str0" x1="11450" y1="15000" x2="11450" y2= "14900" />
  <line class="fil0 str0" x1="11450" y1="14900" x2="11550" y2= "14900" />
  <line class="fil0 str0" x1="11650" y1="14400" x2="11650" y2= "14800" />
  <line class="fil0 str0" x1="11650" y1="14800" x2="11750" y2= "14800" />
  <line class="fil0 str0" x1="11750" y1="14800" x2="11750" y2= "14400" />
  <line class="fil0 str0" x1="11750" y1="14400" x2="11650" y2= "14400" />
  <line class="fil0 str0" x1="10550" y1="13600" x2="10550" y2= "13700" />
  <line class="fil0 str0" x1="10550" y1="13700" x2="10950" y2= "13700" />
  <line class="fil0 str0" x1="10950" y1="13700" x2="10950" y2= "13600" />
  <line class="fil0 str0" x1="10950" y1="13600" x2="10550" y2= "13600" />
  <line class="fil0 str0" x1="9450" y1="16100" x2="9550" y2= "16100" />
  <line class="fil0 str0" x1="9150" y1="13500" x2="11850" y2= "13500" />
  <line class="fil0 str0" x1="9150" y1="16200" x2="9150" y2= "13500" />
  <line class="fil0 str0" x1="11850" y1="16200" x2="9150" y2= "16200" />
  <line class="fil0 str0" x1="11850" y1="13500" x2="11850" y2= "16200" />
 </g>
</svg>
