<?xml version="1.0" encoding="UTF-8"?>
<!DOCTYPE svg PUBLIC "-//W3C//DTD SVG 1.1//EN" "http://www.w3.org/Graphics/SVG/1.1/DTD/svg11.dtd">
<!-- Creator: CorelDRAW X7 -->
<svg xmlns="http://www.w3.org/2000/svg" xml:space="preserve" width="210mm" height="297mm" version="1.1" style="shape-rendering:geometricPrecision; text-rendering:geometricPrecision; image-rendering:optimizeQuality; fill-rule:evenodd; clip-rule:evenodd"
viewBox="0 0 21000 29700"
 xmlns:xlink="http://www.w3.org/1999/xlink">
 <defs>
  <style type="text/css">
   <![CDATA[
    .str0 {stroke:black;stroke-width:25;stroke-linejoin:bevel}
    .fil0 {fill:none}
   ]]>
  </style>
 </defs>
 <g id="_0">
  <metadata id="CorelCorpID_0Corel-Layer"/>
  <polygon class="fil0 str0" points="11750,15300 11650,15300 11650,14900 11750,14900 "/>
  <polygon class="fil0 str0" points="10850,15000 10750,15000 10750,14900 11050,14900 11050,15000 11150,15000 11150,15100 11250,15100 11250,15200 11350,15200 11350,15300 11050,15300 11050,15200 10950,15200 10950,15100 10850,15100 "/>
  <polygon class="fil0 str0" points="11150,15500 11150,15900 11050,15900 11050,15400 11550,15400 11550,15500 "/>
  <polygon class="fil0 str0" points="11750,15700 11350,15700 11350,16100 11250,16100 11250,15600 11750,15600 "/>
  <polygon class="fil0 str0" points="11550,16100 11450,16100 11450,15900 11550,15900 11550,15800 11750,15800 11750,15900 11650,15900 11650,16000 11550,16000 "/>
  <polygon class="fil0 str0" points="10850,15700 10750,15700 10750,15600 10650,15600 10650,15500 10550,15500 10550,15100 10650,15100 10650,15200 10750,15200 10750,15300 10850,15300 10850,15400 10950,15400 10950,15800 10850,15800 "/>
  <polygon class="fil0 str0" points="10950,16100 10550,16100 10550,16000 10950,16000 "/>
  <polygon class="fil0 str0" points="10050,16100 10050,16000 10450,16000 10450,16100 "/>
  <polygon class="fil0 str0" points="10150,15700 10150,15800 10050,15800 10050,15400 10150,15400 10150,15300 10250,15300 10250,15200 10350,15200 10350,15100 10450,15100 10450,15500 10350,15500 10350,15600 10250,15600 10250,15700 "/>
  <polygon class="fil0 str0" points="10050,15100 10050,15200 9950,15200 9950,15300 9650,15300 9650,15200 9750,15200 9750,15100 9850,15100 9850,15000 9950,15000 9950,14900 10250,14900 10250,15000 10150,15000 10150,15100 "/>
  <polygon class="fil0 str0" points="9350,14900 9350,15300 9250,15300 9250,14900 "/>
  <polygon class="fil0 str0" points="9450,15400 9950,15400 9950,15900 9850,15900 9850,15500 9450,15500 "/>
  <polygon class="fil0 str0" points="9750,15600 9750,16100 9650,16100 9650,15700 9250,15700 9250,15600 "/>
  <polygon class="fil0 str0" points="9350,16000 9350,15900 9250,15900 9250,15800 9450,15800 9450,15900 9550,15900 9550,16100 9450,16100 9450,16000 "/>
  <polygon class="fil0 str0" points="11750,14800 11650,14800 11650,14400 11750,14400 "/>
  <polygon class="fil0 str0" points="10150,14000 10250,14000 10250,14100 10350,14100 10350,14200 10450,14200 10450,14600 10350,14600 10350,14500 10250,14500 10250,14400 10150,14400 10150,14300 10050,14300 10050,13900 10150,13900 "/>
  <polygon class="fil0 str0" points="10150,14600 10150,14700 10250,14700 10250,14800 9950,14800 9950,14700 9850,14700 9850,14600 9750,14600 9750,14500 9650,14500 9650,14400 9950,14400 9950,14500 10050,14500 10050,14600 "/>
  <polygon class="fil0 str0" points="9850,14200 9850,13800 9950,13800 9950,14300 9450,14300 9450,14200 "/>
  <polygon class="fil0 str0" points="9250,14000 9650,14000 9650,13600 9750,13600 9750,14100 9250,14100 "/>
  <polygon class="fil0 str0" points="9350,13800 9350,13700 9450,13700 9450,13600 9550,13600 9550,13800 9450,13800 9450,13900 9250,13900 9250,13800 "/>
  <polygon class="fil0 str0" points="10050,13700 10050,13600 10450,13600 10450,13700 "/>
  <polygon class="fil0 str0" points="9250,14400 9350,14400 9350,14800 9250,14800 "/>
  <polygon class="fil0 str0" points="9550,14800 9550,14700 9650,14700 9650,14800 9750,14800 9750,14900 9650,14900 9650,15000 9550,15000 9550,14900 9450,14900 9450,14800 "/>
  <polygon class="fil0 str0" points="10950,13700 10550,13700 10550,13600 10950,13600 "/>
  <polygon class="fil0 str0" points="11250,14900 11250,14800 11350,14800 11350,14700 11450,14700 11450,14800 11550,14800 11550,14900 11450,14900 11450,15000 11350,15000 11350,14900 "/>
  <polygon class="fil0 str0" points="11450,13800 11450,13600 11550,13600 11550,13700 11650,13700 11650,13800 11750,13800 11750,13900 11550,13900 11550,13800 "/>
  <polygon class="fil0 str0" points="10950,14300 10850,14300 10850,14400 10750,14400 10750,14500 10650,14500 10650,14600 10550,14600 10550,14200 10650,14200 10650,14100 10750,14100 10750,14000 10850,14000 10850,13900 10950,13900 "/>
  <polygon class="fil0 str0" points="11350,13600 11350,14000 11750,14000 11750,14100 11250,14100 11250,13600 "/>
  <polygon class="fil0 str0" points="11550,14300 11050,14300 11050,13800 11150,13800 11150,14200 11550,14200 "/>
  <polygon class="fil0 str0" points="11050,14800 10750,14800 10750,14700 10850,14700 10850,14600 10950,14600 10950,14500 11050,14500 11050,14400 11350,14400 11350,14500 11250,14500 11250,14600 11150,14600 11150,14700 11050,14700 "/>
  <polygon class="fil0 str0" points="10350,15800 10350,15700 10450,15700 10450,15600 10550,15600 10550,15700 10650,15700 10650,15800 10550,15800 10550,15900 10450,15900 10450,15800 "/>
  <polygon class="fil0 str0" points="10650,14000 10550,14000 10550,14100 10450,14100 10450,14000 10350,14000 10350,13900 10450,13900 10450,13800 10550,13800 10550,13900 10650,13900 "/>
  <polygon class="fil0 str0" points="10350,14900 10350,14800 10450,14800 10450,14700 10550,14700 10550,14800 10650,14800 10650,14900 10550,14900 10550,15000 10450,15000 10450,14900 "/>
 </g>
</svg>
