<?xml version="1.0" encoding="UTF-8"?>
<!DOCTYPE svg PUBLIC "-//W3C//DTD SVG 1.1//EN" "http://www.w3.org/Graphics/SVG/1.1/DTD/svg11.dtd">
<!-- Creator: CorelDRAW X7 -->
<svg xmlns="http://www.w3.org/2000/svg" xml:space="preserve" width="210mm" height="297mm" version="1.1" style="shape-rendering:geometricPrecision; text-rendering:geometricPrecision; image-rendering:optimizeQuality; fill-rule:evenodd; clip-rule:evenodd"
viewBox="0 0 21000 29700"
 xmlns:xlink="http://www.w3.org/1999/xlink">
 <defs>
  <style type="text/css">
   <![CDATA[
    .str0 {stroke:black;stroke-width:15;stroke-linejoin:bevel}
    .fil0 {fill:none}
   ]]>
  </style>
 </defs>
 <g id="_0">
  <metadata id="CorelCorpID_0Corel-Layer"/>
  <path class="fil0 str0" d="M2269 27448l50 122 50 -122c58,47 131,69 205,61 -136,212 -223,452 -255,703 -32,-251 -119,-491 -255,-703 74,8 148,-14 205,-61z"/>
  <path class="fil0 str0" d="M2369 27224l-50 -122 -50 122c-57,-47 -131,-69 -205,-61 136,-212 223,-452 255,-703 32,251 119,491 255,703 -74,-8 -147,14 -205,61z"/>
  <path class="fil0 str0" d="M3869 25963c-69,1 -134,30 -182,79 -48,49 -74,116 -73,184 -27,-56 -74,-100 -133,-121 -59,-21 -123,-18 -180,9 -129,-685 64,-1391 525,-1914 -133,582 -119,1188 43,1763z"/>
  <path class="fil0 str0" d="M3886 27075c-37,-110 -66,-224 -84,-339 -34,-222 -231,-382 -456,-371 -46,82 -65,177 -53,271 210,46 366,224 384,439 19,214 -104,416 -303,498 200,61 373,189 489,363 32,-53 53,-112 63,-174 50,-228 36,-466 -40,-687z"/>
  <path class="fil0 str0" d="M2854 28061c52,-172 38,-358 -38,-521 -299,291 -431,713 -352,1122 175,-167 309,-373 390,-601z"/>
  <path class="fil0 str0" d="M2480 23933c-81,256 -135,521 -161,788 -26,-267 -80,-532 -160,-788 61,-98 114,-201 160,-308 46,107 100,210 161,308z"/>
  <path class="fil0 str0" d="M1292 26365c-224,-11 -421,149 -456,371 -18,115 -46,229 -84,339 -76,221 -90,459 -40,687 10,62 31,121 63,174 116,-174 289,-302 490,-363 -200,-82 -323,-284 -304,-498 19,-215 174,-393 385,-439 11,-94 -7,-189 -54,-271l0 0z"/>
  <path class="fil0 str0" d="M1826 27359c-74,-187 -212,-342 -390,-436 171,67 363,51 521,-41 -5,80 0,160 13,240 -78,56 -130,142 -144,237z"/>
  <path class="fil0 str0" d="M1823 27540c-77,163 -91,349 -39,521 82,228 216,434 391,601 78,-409 -54,-831 -352,-1122l0 0 0 0z"/>
  <path class="fil0 str0" d="M2022 23915c137,-209 238,-440 297,-684 59,244 160,475 298,684 -187,563 -238,1163 -147,1749 104,367 196,737 274,1110 126,73 278,85 413,33 -71,-181 -53,-385 50,-550 -171,-219 -253,-494 -231,-770 61,100 100,212 114,328 -40,-794 311,-1558 939,-2046 -81,128 -129,275 -138,427 28,-66 83,-116 152,-137 -150,522 -173,1072 -66,1605 145,114 170,325 56,470 -62,123 -109,252 -142,385 56,-112 171,-183 297,-181 -174,92 -265,288 -222,480l0 0c156,300 203,646 132,977 -30,181 -133,341 -286,442 -58,-204 -203,-372 -396,-461 -21,19 -40,39 -57,62 -57,73 -68,172 -29,257 21,45 30,96 25,146 -134,-21 -243,-120 -277,-252 20,148 -39,297 -155,392 -287,243 -496,564 -604,924 -107,-360 -317,-681 -604,-924 -116,-95 -175,-244 -154,-392 -34,132 -143,231 -278,252 -5,-50 4,-101 25,-146 39,-85 28,-184 -28,-257 -17,-23 -37,-43 -58,-62 -193,89 -337,257 -396,461 -152,-101 -256,-261 -286,-442 -71,-331 -24,-677 133,-977 42,-192 -49,-388 -222,-480 125,-2 241,69 297,181 -33,-133 -81,-262 -142,-385 -55,-70 -80,-159 -70,-247 11,-88 56,-168 126,-223 106,-533 84,-1083 -66,-1605l0 0c68,21 123,71 151,137 -9,-152 -57,-299 -138,-427l0 0c628,488 979,1252 939,2046 14,-116 53,-228 114,-328 22,276 -60,551 -230,770 102,165 120,369 49,550 135,52 288,40 413,-33 79,-373 170,-743 274,-1110 91,-586 41,-1186 -146,-1749l0 0z"/>
  <path class="fil0 str0" d="M2613 26664c-77,-365 -175,-725 -294,-1078 -118,353 -216,713 -293,1078 173,-194 276,-440 293,-699 17,259 120,505 294,699z"/>
  <path class="fil0 str0" d="M1531 27215c85,63 158,143 214,233 -74,75 -122,172 -139,276 -39,-52 -88,-96 -145,-129 84,-108 110,-250 70,-380l0 0z"/>
  <path class="fil0 str0" d="M1162 26891c-72,92 -96,212 -64,325 31,112 113,203 222,245 71,-93 94,-213 62,-325 -31,-111 -112,-202 -220,-245z"/>
  <path class="fil0 str0" d="M813 24200c133,582 118,1188 -43,1763 143,2 257,120 254,263 27,-56 75,-100 133,-121 59,-21 124,-18 180,9 129,-685 -64,-1391 -524,-1914l0 0z"/>
  <path class="fil0 str0" d="M2893 27448c56,-90 129,-170 215,-233 -41,130 -15,272 69,380 -56,33 -105,77 -145,129 -16,-104 -65,-201 -139,-276z"/>
  <path class="fil0 str0" d="M3476 26891c-107,43 -189,134 -220,245 -31,112 -8,232 62,325 109,-42 192,-133 223,-245 31,-113 7,-233 -65,-325z"/>
  <path class="fil0 str0" d="M2681 26882c159,92 351,108 522,41 -178,94 -317,249 -390,436 -14,-95 -66,-181 -145,-237 14,-80 18,-160 13,-240l0 0z"/>
 </g>
</svg>
